<?xml version="1.0" standalone="yes"?>
<svg xmlns="http://www.w3.org/2000/svg" width="564" height="564">
<path style="fill:#fefefe; stroke:none;" d="M0 0L0 564L564 564L564 0L0 0z"/>
<path style="fill:#040404; stroke:none;" d="M348 61C348.737 53.0547 355.88 46.4266 355.468 38C355.287 34.3074 354.306 30.4087 352.906 27C343.21 3.40265 315.698 4.11603 296.039 14.0439C291.354 16.4103 286.206 20.3882 282.09 23.679C280.049 25.3104 277.897 28.337 275 28.2492C270.229 28.1046 264.836 19.8426 261.424 16.9028C252.764 9.44061 235.941 7.35553 227.9 17.1875C224.275 21.6205 220.845 26.726 218.59 32C215.844 38.4238 213.034 44.8558 213.079 52C213.123 58.827 217.507 64.1819 221.65 69.1698C227.344 76.0238 232.78 81.3683 240.285 86.3395C246.204 90.2592 252.255 92.8792 257.664 97.6705C262.976 102.376 265.816 108.351 270.546 113.292C272.324 115.15 274.738 116.084 276.741 117.644C280.037 120.213 282.297 123.739 287 123.588C300.794 123.146 299.885 106.166 305.584 98.0394C312.548 88.1088 323.352 80.579 333.001 73.5486C338.302 69.6857 342.832 64.982 348 61z"/>
<path style="fill:#fefefe; stroke:none;" d="M286 103C292.154 92.2291 298.134 81.9079 307.715 73.7045C313.603 68.6628 320.899 65.2413 326.698 60.2006C328.808 58.3658 329.572 55.5967 331.389 53.5139C335.7 48.5705 339.785 44.1714 339.371 37C338.704 25.4414 328.22 20.7607 318 21.4954C308.86 22.1524 297.98 29.0656 292.005 35.5764C288.062 39.8727 286.413 47.3219 279.999 48.537C271.198 50.2047 260.45 37.3112 254.17 32.446C250.951 29.9523 247.446 26.3946 243.004 28.2723C231.233 33.2486 227.523 50.7844 233.078 61C240.182 74.0637 256.076 84.9524 268.576 92.571C270.795 93.9239 273.548 93.7874 275.698 95.1775C277.638 96.4312 278.119 98.7371 279.721 100.276C281.4 101.888 283.846 102.363 286 103z"/>
<path style="fill:#040404; stroke:none;" d="M260 493C266.748 488.377 263.498 476.927 263.416 470C263.213 452.964 263.082 436.052 263.001 419C262.975 413.592 260.999 403.743 264.731 399.318C268.251 395.145 276.461 397.977 281.039 398.694C285.808 399.44 291.174 400.676 296 400.391C306.053 399.798 316.171 395.37 323.367 405.004C326.91 409.748 331.156 414.585 333.688 419.961C339.619 432.557 341.993 447.164 347.509 460C348.901 463.238 351.559 465.697 352.852 469C356.51 478.345 357.389 488.505 361.584 497.83C365.332 506.161 370.983 513.802 375.096 522C376.862 525.518 377.13 529.455 378.765 533C381.745 539.465 385.486 545.795 389 552C393.661 551.231 398.354 551.578 403 552.467C406.899 553.213 410.151 555.041 414 553.107C418.602 550.795 424.106 547.16 426.868 542.714C431.603 535.09 431.417 526.439 439.174 520.39C453.702 509.062 472.231 527.28 483.09 536.115C486.41 538.816 490.157 540.803 493 544C505.586 542.609 519.583 541.465 520.811 526C521.089 522.498 519.82 519.368 519.12 516C518.215 511.648 517.911 507.19 516.336 503C512.308 492.281 505.266 482.904 501.519 472C497.912 461.501 498.674 450.67 496.236 440C492.497 423.64 487.169 406.74 485.251 390C484.824 386.279 486.017 382.664 485.65 379C484.99 372.397 482.048 366.954 482.843 360C483.985 350.005 495.296 343.932 500.871 336.741C503.588 333.237 505.019 328.865 507.102 325C511.167 317.457 515.849 309.355 518 301C516.159 297.622 518.116 294.606 518.88 291C520.33 284.152 521.983 276.95 522.705 270C524.796 249.879 522.576 229.727 514.195 211C510.325 202.352 504.87 197.841 498.224 191.486C496.021 189.38 494.867 186.523 492.727 184.375C489.764 181.4 486.102 178.894 482.93 176.115C480.479 173.968 478.863 171.077 476.455 168.993C474.318 167.143 471.362 166.242 469 164.687C461.571 159.796 453.306 154.324 445 151.046C441.159 149.529 436.86 149.872 433.039 148.427C430.107 147.317 428.034 144.949 424.961 144.059C416.274 141.543 407.808 142.119 399 141.121C393.181 140.462 386.888 138.874 381 139.299C372.957 139.879 364.407 144.909 357 147.841C344.683 152.717 332.311 156.281 321.188 163.923C318.429 165.819 317.061 169.043 314.738 171.385C308.247 177.927 301.044 185.424 297.243 194C293.264 202.977 290.033 215.935 282 222C277.729 206.95 272.163 190.906 263.124 178C252.064 162.208 235.714 149.8 219.09 140.679C215.972 138.969 213.388 136.704 210.035 135.374C202.241 132.283 194.052 132.122 186 130.335C178.988 128.778 171.051 125.864 164 125.307C156.346 124.703 149.491 126.446 142 126.906C136.667 127.233 131.362 125.673 126 126.404C105.516 129.198 84.3412 141.164 70.1744 156.025C54.2022 172.78 47.7078 195.141 43.0386 217C41.08 226.169 39.2445 235.564 39.159 245C39.0903 252.573 40.8319 260.464 41.6188 268C42.6104 277.496 43.9104 288.969 49.6512 296.961C54.2022 303.296 61.3741 309.305 67.3742 314.241C71.1933 317.383 75.6816 319.198 78.74 323.325C81.4103 326.928 82.9161 333.681 84.3017 338C85.7866 342.629 84.9015 347.804 85.2438 352.579C86.308 367.428 85.732 382.288 87.3727 397.039C89.1084 412.646 94.2662 427.943 98.3665 443C100.526 450.93 101.664 459.13 104.384 467C107.566 476.207 112.131 484.971 115.743 494C122.235 510.228 126.371 529.883 141.039 541.073C146.2 545.009 149.861 545.747 156 544.517C162.413 543.232 166.707 545.989 171.697 539.956C179.456 530.575 176.231 512.242 193 511.348C197.063 511.131 200.762 513.766 204 515.951C212.067 521.396 220.426 528.214 227.367 534.974C229.662 537.21 231.149 541.048 234.129 542.436C236.89 543.722 239.327 541.865 242.09 541.697C248.422 541.31 253.869 540.759 258.529 535.671C263.596 530.141 263.122 522.966 262.95 516C262.754 508.082 263.161 500.448 260 493z"/>
<path style="fill:#fefefe; stroke:none;" d="M249 399L255 396C254.596 392.147 252.505 386.619 256.188 383.858C259.034 381.725 263.591 381.584 267 381.508C275.421 381.323 283.616 383.414 292 383.61C295.533 383.693 298.584 381.922 302 381.329C305.637 380.697 309.355 381.193 313 380.535C319.953 379.282 325.213 375.776 331 372C327.842 361.264 312.386 358.29 303 355.999C299.18 355.067 295.521 352.834 292 355C282.426 349.029 269.758 349.46 261 342C253.774 342.746 234.679 338.804 235.485 328.999C235.995 322.78 240.427 320.213 244.536 316.402C249.403 311.889 255.107 306.111 259.251 300.957C266.35 292.126 268.248 283.621 270.395 273C271.598 267.051 273.133 260.097 272.701 254C272.417 249.983 270.71 246.017 270.131 242C269.249 235.879 269.442 225.348 264.927 220.533C262.566 218.014 259.744 221.087 258.464 223.058C254.962 228.446 249.705 233.696 244.622 225.906C239.848 218.589 252.564 208.82 258 206C255.337 198.572 250.827 191.821 246.075 185.576C240.46 178.196 235.605 170.763 227.91 165.286C208.213 151.267 181.578 147.943 159 141L159 143C154.49 141.926 148.622 140.773 144 141.086C139.932 141.361 136.045 143.099 132 143.545C128.019 143.983 123.839 143.173 120 144.554C115.423 146.201 112.137 149.537 108 151.877C101.288 155.672 93.6732 157.907 87.7685 163.104C54.6766 192.232 47.1229 242.187 61.8094 282C65.308 291.484 72.1172 300.125 80.5756 305.741C89.2816 311.521 102.632 316.193 102.513 329C102.494 331.046 101.504 332.953 101.39 335C100.577 349.518 100.8 364.444 101.258 379C101.939 400.59 106.729 421.144 111.572 442C115.571 459.224 120.31 476.908 129.829 492C132.428 496.12 133.431 500.673 135.597 504.985C137.512 508.798 140.237 512.101 141.995 516.004C143.626 519.625 144.911 524.731 149.174 526.164C151.816 527.053 154.71 525.721 157 524.482C165.212 520.036 164.74 513.903 169.727 507.3C175.382 499.813 185.141 495.847 194 494.054C203.554 492.121 207.168 497.153 213.361 503.338C217.042 507.014 221.017 510.239 224.475 514.155C228.606 518.834 236.103 524.664 242.927 523.512C246.596 522.892 246.419 518.93 246.764 516C247.638 508.571 247.409 501.441 247.822 494C248.249 486.292 247.346 478.584 247.623 471C247.783 466.641 249.256 462.374 249.378 458C249.482 454.292 248.289 450.685 248.274 447C248.261 443.954 249.404 441.062 249.471 438C249.627 430.952 248.601 423.988 248.259 417C247.97 411.071 250.107 404.648 249 399M308 212C317.059 213.951 326.464 222.69 330.455 231.001C332.147 234.523 334.167 239.022 331.972 242.811C329.095 247.779 322.967 246.852 319.815 242.786C314.785 236.301 311.403 223.582 301.184 232.305C294.731 237.813 294.76 243.542 292.406 251C287.116 267.758 285.179 288.052 290.23 305C291.872 310.509 292.854 315.587 297.185 319.787C302.848 325.279 309.783 326.062 317 327.746C327.122 330.109 336.598 332.684 347 334L347 338C359.017 340.78 371.486 342.327 382.995 346.749C387.778 348.587 392.04 354.493 385.887 357.971C382.3 359.999 376.864 358.284 373 357.925C362.614 356.96 351.356 354.163 341 356C343.494 358.088 346.446 359.481 348.981 361.529C359.377 369.932 345.912 377.418 343 386C353.882 384.01 359.691 390.522 369 394.672C372.831 396.38 376.599 396.685 379.956 399.483C382.67 401.745 388.965 409.759 384.628 413.088C381.252 415.68 375.273 413.287 372 411.737C364.137 408.014 354.961 400.967 346 403C353.665 427.848 363.626 452.071 371.325 477C373.828 485.106 381.797 493.375 380 502C382.679 504.246 383.863 505.491 384 509C390.865 515.607 391.915 526.14 397.895 533.61C401.828 538.522 410.11 539.243 414.4 534.387C417.181 531.239 418.528 524.904 420.205 521C423.792 512.65 430.813 502.409 440 499.769C443.037 498.896 445.936 499.701 449 499.91C453.281 500.203 457.752 499.756 461.829 501.424C467.642 503.803 474.174 510.781 478.845 515.035C483.119 518.927 487.96 521.744 493 524.577C495.056 525.733 497.45 527.13 499.891 526.339C504.867 524.725 504.149 517.929 503.255 514C502.349 510.021 501.849 505.65 499.951 502C496.652 495.66 491.408 490.351 488.258 483.91C483.751 474.693 486.331 465.435 484.176 456C482.698 449.532 479.728 443.277 478.299 436.91C476.406 428.477 476.226 419.456 474.49 411C473.703 407.166 471.421 403.814 470.588 400C469.596 395.458 469.608 390.6 468.781 386C468.219 382.876 466.573 380.122 465.978 377C465.158 372.703 465.232 368.253 464.142 364C462.976 359.45 460.595 355.906 461.11 351C462.569 337.094 483.19 336.312 490.125 325.985C502.908 306.952 509.392 282.855 508.39 260C508.122 253.907 505.604 247.947 504.461 242C502.531 231.96 501.698 220.941 496.236 212.015C492.8 206.4 487.515 202.009 483.262 197.039C480.403 193.697 478.411 189.726 474.896 186.974C469.091 182.429 462.248 180.036 456 176.293C450.215 172.827 444.373 167.976 438 165.688C426.714 161.634 414.723 160.155 403 158.559C394.14 157.353 386.09 155.894 377 157.216C373.082 157.786 369.631 160.048 366 161.492C357.608 164.829 350.43 167.465 342.961 172.454C339.885 174.509 336.105 174.904 333.04 177.018C329.643 179.361 327.784 182.974 324.816 185.726C317.261 192.732 309.194 200.993 308 212z"/>
<path style="fill:#040404; stroke:none;" d="M187 193.514C176.167 195.678 170.19 200.859 163.351 209.285C161.37 211.727 157.57 219.908 163.228 220.944C165.294 221.323 167.277 219.731 169 218.857C171.675 217.501 174.367 216.448 176.7 214.506C180.574 211.283 184.045 205.944 189.91 207.333C194.307 208.375 197.584 214.233 199.381 217.995C200.784 220.932 201.971 224.335 205.996 223.623C213.313 222.329 209.872 214.247 208.011 210C204.112 201.103 198.199 191.276 187 193.514M382 204.653C372.283 206.845 367.097 219.8 363.443 228C361.671 231.975 359.365 237.746 364.148 240.542C372.935 245.68 376.564 234.789 379.349 229.002C380.347 226.927 381.901 223.316 384.81 223.782C386.813 224.104 388.131 226.515 389.162 228.016C392.417 232.754 395.201 243.686 402.857 242.553C407.653 241.844 409.581 233.2 408.231 229.424C404.522 219.048 395.494 201.608 382 204.653M203.003 251.502C196.077 252.12 194.322 259.085 195.765 265C198.019 274.243 204.822 287.711 216 287.171C218.404 287.054 220.635 285.99 223 285.62C228.462 284.766 236.181 284.81 240.699 281.297C244.209 278.567 246.137 274.114 247.48 270C248.568 266.666 251.745 256.723 247.562 254.604C244.058 252.829 239.233 255.259 236.75 257.725C231.514 262.927 229.15 273.838 219.043 270.357C210.444 267.396 213.7 250.548 203.003 251.502M319 264C317.213 265.6 314.74 266.851 313.742 269.143C311.366 274.6 314.494 279.566 317.291 284C323.544 293.914 328.04 300.976 341 300.971C354.348 300.966 365.55 292.931 374.036 283.424C378.273 278.678 381.581 269.452 373.895 266.009C370.709 264.582 365.258 264.488 363.627 268.228C362.706 270.341 363.321 272.73 362.092 274.791C358.865 280.202 350.237 285.949 343.91 285.698C329.596 285.127 331.532 266.793 319 264z"/>
<path style="fill:#fefefe; stroke:none;" d="M515 301L516 302L515 301z"/>
</svg>
