<?xml version="1.0" standalone="no"?>
<!DOCTYPE svg PUBLIC "-//W3C//DTD SVG 20010904//EN"
 "http://www.w3.org/TR/2001/REC-SVG-20010904/DTD/svg10.dtd">
<svg version="1.0" xmlns="http://www.w3.org/2000/svg"
 width="300.000000pt" height="299.000000pt" viewBox="0 0 300.000000 299.000000"
 preserveAspectRatio="xMidYMid meet">
<metadata>
Created by potrace 1.10, written by Peter Selinger 2001-2011
</metadata>
<g transform="translate(0.000000,299.000000) scale(0.100000,-0.100000)"
fill="#000000" stroke="none">
<path d="M1465 2931 c-101 -17 -166 -80 -206 -201 -19 -59 -30 -77 -59 -96
-44 -30 -50 -30 -107 6 -67 43 -105 41 -150 -10 -20 -22 -45 -40 -55 -40 -25
0 -82 -31 -143 -77 -86 -66 -139 -198 -165 -414 -12 -92 -29 -136 -80 -200
-21 -27 -54 -82 -73 -122 -33 -69 -87 -256 -87 -302 0 -12 -9 -48 -20 -80 -30
-86 -28 -91 24 -90 52 2 112 28 126 55 16 29 13 30 -36 9 -25 -12 -48 -19 -50
-16 -3 3 4 33 15 67 29 86 34 121 22 150 -9 23 -10 21 -10 -17 -1 -47 -31
-153 -43 -153 -4 0 -8 -6 -8 -13 0 -8 -10 -22 -22 -33 -18 -16 -20 -16 -15 -3
3 10 11 37 17 60 7 24 15 51 18 59 2 8 4 31 2 50 -1 27 1 32 12 23 11 -9 13
-1 15 45 1 31 7 58 12 60 6 2 11 13 11 25 0 26 19 62 20 37 0 -12 2 -13 9 -1
5 7 6 22 3 34 -4 15 -2 18 8 12 8 -5 11 -4 7 2 -4 5 1 19 11 29 9 11 18 26 20
34 2 8 10 20 18 26 7 6 14 15 14 19 0 5 11 23 26 42 34 45 50 87 59 153 18
144 47 259 83 330 35 66 123 142 193 165 27 9 58 27 71 40 30 32 93 33 150 4
71 -36 138 0 176 97 47 121 66 147 128 178 115 58 236 33 332 -69 40 -43 81
-118 95 -176 11 -45 38 -68 87 -74 25 -3 53 -8 63 -11 9 -3 37 5 62 17 40 20
50 21 97 12 29 -6 95 -10 147 -9 l94 2 54 -50 c61 -56 131 -143 157 -194 10
-19 23 -61 31 -95 7 -34 33 -111 58 -172 25 -60 54 -139 65 -175 11 -36 30
-84 42 -108 20 -42 39 -113 26 -101 -3 3 -15 30 -25 60 -25 70 -26 52 -1 -31
10 -36 19 -59 19 -52 1 7 6 10 11 7 8 -5 7 -12 -2 -23 -10 -12 -10 -14 0 -8 7
4 12 2 12 -6 0 -8 13 -32 29 -54 58 -79 75 -196 42 -289 -14 -40 -23 -52 -47
-59 -102 -31 -115 -46 -117 -142 -2 -75 -18 -94 -36 -43 -10 29 -8 35 11 57
14 15 17 23 9 20 -8 -2 -23 -16 -34 -30 -17 -23 -17 -28 -4 -60 8 -19 15 -52
15 -74 1 -21 6 -88 13 -149 6 -60 10 -141 9 -180 -6 -127 -4 -189 10 -285 15
-113 15 -217 -1 -236 -10 -12 -97 -14 -543 -12 l-531 3 2 75 c2 65 6 115 19
230 8 65 4 301 -5 347 -7 36 -7 68 0 100 5 27 15 90 21 142 10 93 10 95 -12
113 -13 10 -30 22 -38 27 -8 4 -16 29 -19 55 -6 53 -26 58 -31 7 -6 -58 29
-111 64 -99 5 2 10 -1 12 -7 5 -17 -9 -137 -25 -212 -12 -59 -13 -82 -3 -129
8 -39 10 -111 6 -228 -9 -242 -22 -418 -31 -438 -7 -17 24 -18 573 -18 l580 0
7 76 c4 43 2 102 -4 137 -28 164 -32 225 -20 293 12 68 9 116 -22 338 -7 50
-6 72 2 83 8 9 14 10 19 3 9 -14 40 -2 40 17 0 8 -5 46 -12 84 -10 64 -10 71
8 84 10 7 36 13 57 12 23 -1 43 5 53 15 27 26 54 118 54 179 0 73 -33 179 -65
211 -16 16 -32 52 -44 99 -26 99 -73 239 -128 379 -25 63 -52 143 -59 177 -7
34 -20 76 -30 95 -30 59 -121 172 -163 203 -22 17 -45 42 -50 58 -12 32 -10
31 -47 12 -34 -18 -58 -19 -85 -5 -14 8 -26 7 -45 -3 -22 -11 -33 -12 -63 -1
-53 19 -99 17 -132 -7 -26 -18 -34 -19 -65 -9 -19 7 -46 9 -58 6 -25 -6 -52
14 -38 29 4 5 2 5 -4 2 -7 -4 -18 1 -25 10 -12 15 -12 16 4 10 23 -8 22 4 -3
36 -11 14 -20 36 -20 50 0 31 -68 115 -127 157 -73 53 -140 67 -238 51z"/>
<path d="M1406 2288 c-9 -12 -16 -35 -16 -51 0 -53 75 -53 99 0 25 56 -49 100
-83 51z m68 -13 c6 -16 -13 -55 -26 -55 -3 0 -13 -3 -22 -6 -12 -5 -16 0 -16
19 0 14 3 32 6 41 8 20 50 21 58 1z"/>
<path d="M1375 2173 c-32 -6 -63 -36 -71 -67 -5 -21 -4 -27 5 -22 6 4 11 14
11 21 0 8 18 27 40 41 22 15 40 28 40 30 0 2 -1 3 -2 3 -2 -1 -12 -4 -23 -6z"/>
<path d="M1378 2133 c-14 -16 -30 -43 -37 -62 -15 -46 -14 -62 2 -31 7 14 26
46 41 73 32 54 30 59 -6 20z"/>
<path d="M1327 1969 c-25 -15 -21 -69 10 -139 15 -33 31 -60 35 -60 4 0 -7 38
-24 85 -29 83 -30 86 -12 100 23 16 16 27 -9 14z"/>
<path d="M1377 1903 c5 -67 24 -133 38 -133 2 0 -1 15 -6 32 -5 18 -9 58 -9
88 0 31 -7 63 -15 73 -12 17 -13 9 -8 -60z"/>
<path d="M487 1292 c-6 -100 -31 -173 -66 -191 -21 -12 -23 -16 -80 -122 -19
-35 -44 -77 -56 -94 -32 -43 -75 -130 -92 -189 -8 -28 -21 -58 -28 -66 -7 -8
-18 -33 -25 -55 -7 -22 -21 -56 -31 -75 -11 -21 -20 -66 -23 -115 -3 -44 -12
-120 -20 -170 -9 -50 -15 -107 -16 -127 l0 -38 578 0 578 0 2 58 c1 31 10 102
19 157 23 143 27 498 7 543 -17 37 -15 103 6 185 10 39 15 47 28 42 68 -28
194 -43 219 -27 33 21 59 137 44 201 -8 38 -7 42 7 35 10 -4 33 -9 52 -11 33
-5 34 -4 15 10 -29 21 -73 27 -86 11 -6 -7 -12 -43 -13 -81 -2 -37 -11 -85
-20 -105 -19 -45 -34 -47 -151 -21 -90 19 -95 17 -125 -70 -24 -67 -26 -131
-5 -180 12 -29 14 -74 11 -229 -2 -106 -6 -209 -10 -228 -9 -55 -14 -91 -21
-155 -3 -33 -11 -70 -17 -82 l-11 -23 -521 0 c-287 0 -527 4 -535 9 -13 9 -12
99 3 176 3 17 9 66 12 110 6 77 14 101 78 240 13 28 33 78 46 112 12 34 42 92
66 128 24 37 46 76 49 86 7 21 62 103 115 173 17 21 30 47 30 57 0 10 4 20 9
23 15 9 13 149 -2 170 -12 17 -15 9 -20 -72z"/>
</g>
</svg>
