<?xml version="1.0" standalone="no"?>
<!DOCTYPE svg PUBLIC "-//W3C//DTD SVG 20010904//EN"
 "http://www.w3.org/TR/2001/REC-SVG-20010904/DTD/svg10.dtd">
<svg version="1.0" xmlns="http://www.w3.org/2000/svg"
 width="300.000000pt" height="300.000000pt" viewBox="0 0 300.000000 300.000000"
 preserveAspectRatio="xMidYMid meet">
<metadata>
Created by potrace 1.10, written by Peter Selinger 2001-2011
</metadata>
<g transform="translate(0.000000,300.000000) scale(0.100000,-0.100000)"
fill="#000000" stroke="none">
<path d="M550 2893 c0 -6 -17 -13 -37 -15 -20 -2 -38 -8 -40 -15 -3 -9 15 -12
67 -11 75 2 100 13 53 24 -15 4 -31 12 -35 18 -6 8 -8 7 -8 -1z"/>
<path d="M157 2863 c18 -2 50 -2 70 0 21 2 7 4 -32 4 -38 0 -55 -2 -38 -4z"/>
<path d="M246 2811 c-25 -10 -12 -17 37 -20 37 -3 51 12 21 23 -19 7 -33 7
-58 -3z"/>
<path d="M739 2809 c-9 -5 -10 -9 -2 -9 6 0 15 -9 18 -20 8 -24 25 -17 25 10
0 21 -21 32 -41 19z"/>
<path d="M323 2784 c-7 -3 3 -19 23 -40 19 -18 37 -34 39 -34 9 0 -5 40 -21
59 -19 22 -21 23 -41 15z"/>
<path d="M430 2753 c0 -28 3 -34 10 -23 13 20 13 47 0 55 -6 4 -10 -9 -10 -32z"/>
<path d="M172 2732 c-12 -14 -22 -32 -22 -40 0 -7 -4 -11 -9 -8 -14 9 -24 -50
-13 -71 9 -15 11 -11 17 20 4 20 11 37 15 37 4 0 11 12 15 27 3 15 13 32 22
38 10 7 12 14 6 18 -5 3 -20 -6 -31 -21z"/>
<path d="M411 2699 c-22 -9 -22 -11 -8 -27 8 -9 17 -25 18 -35 2 -10 9 -19 14
-20 13 -3 18 43 8 70 -7 17 -12 19 -32 12z"/>
<path d="M820 2560 c0 -57 2 -101 5 -98 8 7 8 189 1 196 -4 3 -6 -41 -6 -98z"/>
<path d="M1774 2567 c-19 -18 -19 -18 8 -12 15 4 39 8 53 9 36 2 31 13 -8 18
-23 2 -39 -2 -53 -15z"/>
<path d="M1102 2557 c-41 -13 -92 -70 -155 -173 -69 -114 -67 -112 -125 -167
-32 -31 -56 -63 -62 -86 -5 -20 -19 -51 -30 -68 -35 -58 -90 -36 -104 41 -7
38 -16 46 -16 13 0 -14 8 -39 17 -55 16 -28 16 -30 -5 -64 -28 -44 -27 -50 3
-114 30 -64 50 -77 96 -64 74 21 79 0 16 -63 -25 -26 -49 -62 -57 -88 -8 -24
-20 -54 -27 -65 -8 -12 -18 -46 -23 -75 -5 -30 -16 -87 -25 -128 -8 -41 -13
-77 -11 -79 10 -10 24 10 21 28 -3 15 2 20 18 21 16 0 18 2 7 7 -18 8 -21 62
-3 62 7 0 10 7 7 15 -4 8 -1 22 6 30 7 8 9 15 4 16 -5 0 0 4 11 9 17 7 17 9 3
9 -14 1 -16 5 -8 25 5 13 6 27 3 30 -4 3 -1 6 6 6 6 0 11 6 10 13 -4 23 13 67
24 60 6 -4 8 0 4 10 -3 10 -2 17 3 17 6 0 10 3 9 8 -4 29 18 57 43 53 5 0 7 2
7 7 -4 22 3 32 21 32 11 0 20 -4 20 -10 0 -5 11 -10 25 -10 14 0 28 -7 31 -15
9 -23 23 -18 30 10 7 29 4 28 79 13 l58 -11 -25 -22 c-24 -21 -34 -55 -15 -55
5 0 7 7 3 15 -6 17 2 19 23 6 9 -6 10 -11 2 -15 -7 -5 -8 -13 -1 -25 6 -12 5
-22 -3 -31 -8 -9 -8 -11 -1 -7 7 4 15 0 18 -9 5 -12 2 -15 -9 -10 -9 3 -14 2
-10 -3 3 -5 -1 -12 -7 -14 -10 -4 -10 -6 0 -6 6 -1 12 -9 12 -18 -1 -22 -36
-99 -44 -95 -15 6 -19 0 -6 -9 11 -8 12 -12 2 -16 -6 -2 -9 -10 -6 -15 4 -7 2
-8 -5 -4 -6 4 -9 11 -7 15 3 4 -4 12 -15 19 -10 7 -19 8 -19 3 0 -5 5 -11 12
-13 23 -8 -3 -28 -28 -22 -18 5 -24 2 -24 -10 0 -9 -5 -16 -11 -16 -5 0 -7 -5
-3 -11 5 -8 9 -8 14 1 5 8 13 9 21 4 11 -6 12 -5 2 7 -11 13 -8 16 17 16 34 0
36 -4 15 -26 -9 -9 -29 -35 -45 -58 -18 -26 -35 -40 -44 -37 -7 3 -16 -2 -20
-11 -3 -10 -13 -15 -20 -12 -8 3 -17 0 -19 -7 -4 -10 1 -12 14 -9 22 6 25 -9
6 -29 -7 -7 -16 -21 -20 -31 -4 -10 -11 -15 -17 -12 -6 4 -7 -1 -3 -11 5 -13
3 -15 -7 -9 -10 6 -12 4 -7 -8 3 -10 2 -17 -4 -17 -6 0 -7 -6 -3 -12 5 -9 2
-8 -9 1 -10 8 -20 11 -24 7 -3 -3 -1 -6 6 -6 8 0 11 -6 7 -16 -4 -10 -2 -13 6
-8 7 5 8 3 4 -5 -5 -7 -15 -10 -25 -7 -14 5 -13 4 2 -8 21 -16 22 -30 1 -22
-8 3 -13 2 -9 -3 3 -5 -1 -11 -7 -14 -10 -3 -9 -9 3 -22 15 -16 19 -11 58 70
47 99 67 128 170 244 99 114 115 150 115 274 l1 97 52 56 c29 32 56 53 63 49
14 -9 3 -44 -23 -72 l-20 -23 23 -25 c32 -34 101 -36 122 -2 26 39 42 98 29
106 -14 9 23 61 43 61 7 0 21 7 32 16 10 8 13 13 6 9 -7 -4 -19 -1 -27 5 -12
10 -15 10 -15 -1 0 -8 -13 -23 -29 -34 -16 -10 -28 -22 -25 -26 2 -4 -1 -11
-7 -15 -18 -11 -29 18 -25 72 4 55 18 84 48 103 23 14 37 6 20 -11 -19 -19
-14 -33 6 -16 32 28 102 48 95 28 -2 -8 38 -4 60 5 9 4 17 12 17 17 0 10 -14
8 -55 -7 -20 -8 -20 -8 0 8 18 15 18 16 2 17 -10 0 -35 -9 -57 -20 -22 -11
-41 -20 -43 -20 -3 0 -8 15 -11 33 -3 19 -20 56 -37 83 l-32 49 11 130 c11
135 6 186 -22 230 -28 42 -87 60 -144 42z m67 -31 c0 -6 -4 -20 -9 -31 -5 -14
-1 -29 16 -52 27 -36 33 -93 9 -93 -8 0 -15 5 -15 10 0 6 -7 10 -15 10 -8 0
-15 -9 -15 -20 0 -16 5 -19 24 -14 32 8 40 -9 26 -51 -13 -39 -66 -85 -98 -85
-11 0 -32 14 -46 30 -41 50 -47 128 -11 164 8 8 15 19 15 25 0 14 38 33 50 26
14 -9 52 4 45 15 -3 5 -20 7 -38 5 l-32 -5 35 17 c27 13 31 17 17 21 -10 2
-29 -4 -43 -13 -14 -9 -28 -15 -30 -12 -3 2 8 13 23 23 60 41 94 51 92 30z
m57 -51 c3 -13 4 -34 2 -46 -4 -23 -5 -23 -13 -4 -4 11 -13 26 -19 33 -5 8
-11 22 -13 32 -4 27 36 13 43 -15z m-246 -169 c0 -14 5 -28 10 -31 6 -3 10
-18 10 -32 0 -15 3 -24 6 -20 4 3 14 -3 23 -13 9 -11 32 -26 53 -35 32 -13 37
-13 48 0 7 8 18 15 25 15 6 0 18 11 25 25 7 14 22 25 32 25 10 0 18 7 18 17 0
9 2 14 5 11 3 -3 1 -36 -5 -73 -11 -67 -10 -69 18 -104 41 -52 46 -72 22 -78
-12 -3 -20 -14 -21 -27 0 -19 -1 -19 -8 -2 -6 15 -10 10 -20 -25 -7 -24 -19
-51 -26 -59 -7 -8 -15 -24 -17 -35 -2 -11 -9 -20 -15 -20 -7 0 -18 -6 -24 -12
-7 -7 -19 -13 -27 -13 -8 0 -23 -11 -34 -25 -24 -30 -43 -34 -28 -5 13 24 -5
28 -18 4 -7 -12 -14 -14 -28 -6 -10 5 -35 12 -56 16 -20 4 -39 14 -43 24 -6
15 -8 14 -16 -6 -5 -13 -14 -20 -20 -17 -6 4 -8 14 -5 22 3 8 1 11 -5 8 -5 -4
-7 -16 -3 -28 7 -21 6 -21 -22 -2 -16 10 -37 27 -46 38 -12 13 -30 19 -58 19
-22 0 -40 3 -40 9 0 5 -7 9 -15 9 -13 0 -17 6 -14 26 0 4 -3 10 -8 13 -5 3 -7
27 -5 53 4 46 4 46 38 45 42 -2 43 -10 4 -37 -36 -25 -39 -40 -7 -33 34 9 47
23 48 52 1 22 3 20 14 -14 l13 -40 1 57 c1 34 6 62 14 70 8 7 12 20 10 29 -3
9 11 29 34 49 21 19 38 38 38 43 0 5 9 15 19 23 11 8 16 14 10 15 -5 0 1 4 13
9 12 5 31 27 43 50 23 45 40 52 40 16z m243 -461 c3 -19 13 -42 21 -51 20 -19
21 -48 2 -41 -8 3 -13 -1 -12 -10 1 -19 -35 -45 -51 -35 -9 6 -9 16 1 45 7 20
15 34 19 31 3 -4 3 6 -1 22 -9 33 -5 74 7 74 5 0 11 -16 14 -35z"/>
<path d="M1057 2391 c-17 -6 -17 -8 -3 -20 9 -7 16 -10 16 -6 0 4 6 2 14 -4
10 -9 15 -8 19 4 8 19 -22 35 -46 26z"/>
<path d="M1745 2532 c2 -3 -7 -18 -20 -34 -26 -30 -33 -68 -14 -68 19 0 40
-30 34 -49 -4 -13 6 -31 34 -61 40 -43 44 -60 15 -60 -23 0 -74 -42 -74 -61 0
-9 -9 -19 -20 -22 -11 -3 -20 -11 -20 -18 0 -10 3 -10 12 -1 18 18 28 15 28
-8 0 -23 12 -25 43 -8 12 7 31 13 42 14 61 4 59 2 31 35 -27 32 -34 63 -15 75
6 3 16 1 22 -5 6 -6 20 -11 32 -11 16 0 17 2 5 10 -12 8 -10 14 18 36 18 14
32 35 32 47 0 14 3 18 8 10 4 -6 7 5 7 27 0 34 -2 37 -18 29 -12 -7 -16 -17
-12 -30 4 -12 1 -21 -9 -25 -9 -3 -13 -10 -10 -15 3 -5 10 -7 15 -4 5 4 9 4 9
2 0 -9 -71 -47 -86 -47 -20 0 -17 12 11 39 33 31 26 36 -20 17 -47 -20 -45
-20 -45 3 0 11 -5 23 -10 26 -6 4 -8 10 -5 15 8 12 -6 41 -16 34 -16 -10 -9 9
15 41 22 29 29 32 67 28 26 -3 45 0 49 8 11 17 40 3 40 -19 0 -11 7 -25 15
-32 13 -10 15 -9 15 9 0 12 -4 19 -10 16 -6 -3 -7 1 -4 10 9 22 -14 46 -40 40
-11 -3 -51 -2 -88 3 -37 5 -66 6 -63 4z m58 -337 c4 -8 2 -17 -4 -21 -11 -6
-39 13 -39 27 0 15 37 10 43 -6z"/>
<path d="M1852 2459 c-12 -5 -22 -13 -22 -20 0 -7 7 -8 18 -4 9 4 22 8 29 8
16 0 25 24 9 24 -7 0 -22 -4 -34 -8z"/>
<path d="M1780 2425 c7 -8 10 -24 7 -34 -6 -22 11 -32 42 -24 27 7 27 25 -1
49 -23 19 -23 19 -5 -2 17 -21 14 -34 -10 -34 -8 0 -13 12 -13 30 0 21 -5 30
-16 30 -13 0 -14 -3 -4 -15z"/>
<path d="M787 2393 c-5 -18 -13 -33 -18 -33 -5 0 -9 -9 -9 -20 0 -20 0 -20 21
1 14 14 19 30 17 52 l-3 32 -8 -32z"/>
<path d="M128 2353 c-7 -27 3 -93 13 -93 5 0 7 23 5 51 -6 57 -11 69 -18 42z"/>
<path d="M2026 2315 c-19 -14 -19 -15 -2 -15 15 0 16 -3 7 -14 -9 -11 -9 -16
2 -23 8 -4 22 -21 31 -38 l17 -30 -6 45 c-3 24 -12 52 -20 61 -8 8 -12 19 -8
22 11 12 -1 7 -21 -8z"/>
<path d="M2106 2288 c-9 -13 -16 -44 -16 -73 0 -30 -4 -45 -9 -37 -12 20 -23
-301 -11 -334 8 -20 7 -32 -5 -50 -21 -32 -20 -50 2 -33 9 8 26 13 37 12 15
-1 16 0 4 3 -13 4 -16 12 -11 37 8 41 9 43 30 26 14 -12 16 -12 8 0 -5 9 -4
12 2 8 5 -3 8 -21 6 -39 -3 -33 -3 -32 20 12 13 25 23 46 22 48 -1 1 -23 -2
-48 -7 -44 -8 -47 -7 -47 13 0 12 -6 28 -12 35 -7 8 -8 11 -2 8 18 -10 36 88
39 208 3 90 2 97 -3 35 -4 -41 -13 -84 -20 -95 -13 -19 -13 -19 -7 -1 3 11 10
62 15 114 6 65 14 100 26 113 9 10 12 19 6 19 -6 0 -18 -10 -26 -22z"/>
<path d="M700 2283 c0 -15 2 -15 9 -4 7 11 11 4 14 -25 l4 -39 1 43 c2 31 -2
42 -13 42 -8 0 -15 -8 -15 -17z"/>
<path d="M2156 2278 c4 -13 16 -29 27 -37 17 -12 19 -22 14 -70 l-6 -56 17 30
16 30 9 -32 c8 -26 6 -39 -12 -69 -28 -46 -19 -58 9 -13 21 33 22 34 17 7 -3
-19 0 -28 9 -28 22 0 17 -14 -17 -46 -17 -16 -36 -42 -42 -57 -11 -26 -12 -23
-15 38 -2 56 2 74 23 113 14 25 23 47 21 49 -2 2 -15 -17 -30 -43 -22 -40 -26
-58 -26 -133 l0 -86 29 45 c16 25 40 56 55 69 36 34 35 8 -4 -69 -35 -69 -32
-79 5 -19 23 35 28 39 42 28 20 -17 14 -140 -9 -187 -13 -25 -14 -34 -4 -48
11 -14 15 -8 34 43 12 33 22 76 22 95 0 53 -27 140 -76 242 -7 16 -11 33 -8
38 4 5 -1 26 -9 46 -8 21 -21 52 -28 71 -20 54 -79 99 -63 49z"/>
<path d="M155 2257 c-4 -10 -3 -28 3 -40 9 -20 10 -21 17 -4 4 10 3 28 -3 40
-9 20 -10 21 -17 4z"/>
<path d="M188 2189 c-6 -19 3 -59 13 -59 11 0 11 41 0 59 -7 11 -9 11 -13 0z"/>
<path d="M1927 2039 c32 -64 59 -115 61 -113 7 5 -71 171 -94 199 -15 19 -3
-13 33 -86z"/>
<path d="M1637 2126 c-4 -9 -1 -16 6 -16 8 0 8 -3 2 -8 -6 -4 -10 -27 -10 -52
0 -46 23 -90 62 -121 17 -13 17 -13 0 11 -9 14 -26 43 -38 65 l-20 40 28 -33
c16 -18 37 -34 48 -36 13 -2 22 -13 26 -32 7 -37 94 -202 119 -228 20 -21 50
-16 50 9 0 21 -30 66 -40 60 -5 -3 -11 -1 -15 5 -3 5 -1 10 4 10 6 0 11 5 11
11 0 6 -8 8 -18 5 -11 -4 -22 2 -31 15 -30 49 -48 86 -54 111 -4 14 -19 40
-33 57 -14 17 -22 35 -19 41 8 13 -14 42 -26 35 -4 -3 -17 11 -27 31 -14 28
-20 33 -25 20z m47 -86 c44 -61 46 -73 6 -35 -24 23 -57 85 -45 85 2 0 19 -23
39 -50z"/>
<path d="M217 2124 c-7 -7 4 -44 13 -44 4 0 10 -9 13 -20 6 -23 27 -27 27 -5
0 8 -9 19 -20 25 -10 6 -17 17 -14 24 5 14 -9 30 -19 20z"/>
<path d="M1867 2083 c-12 -11 -8 -23 9 -23 8 0 13 -4 10 -8 -3 -5 4 -16 15
-25 10 -9 19 -23 19 -31 0 -8 5 -18 11 -21 5 -4 4 8 -4 27 -38 89 -44 97 -60
81z"/>
<path d="M1905 1940 c30 -57 55 -106 55 -107 0 -2 -8 -3 -17 -4 -12 -1 -9 -4
7 -8 14 -4 34 -21 45 -39 11 -17 24 -31 28 -32 14 0 -4 43 -37 90 -18 25 -42
65 -54 90 -12 25 -35 61 -51 80 -25 29 -20 16 24 -70z"/>
<path d="M1456 1975 c-11 -8 -17 -18 -14 -21 11 -10 48 7 48 22 0 18 -10 17
-34 -1z"/>
<path d="M1639 1958 c9 -25 11 -32 11 -50 0 -6 3 -8 7 -5 3 4 12 2 20 -5 8 -6
4 9 -9 35 -24 47 -44 65 -29 25z"/>
<path d="M355 1941 c-5 -9 76 -101 89 -101 14 0 4 20 -22 47 -16 15 -31 36
-35 46 -7 19 -22 22 -32 8z"/>
<path d="M1398 1912 c7 -2 9 -8 6 -14 -4 -6 2 -8 17 -3 42 13 44 25 3 23 -21
-1 -33 -3 -26 -6z"/>
<path d="M1655 1873 c4 -10 16 -42 27 -72 24 -64 109 -230 139 -272 21 -30 49
-39 49 -16 0 33 98 49 137 22 20 -14 24 -13 60 20 l38 35 33 -34 c17 -19 32
-39 32 -43 0 -24 -27 -63 -45 -64 -28 -2 -58 -5 -72 -7 -7 -1 -13 -9 -13 -18
0 -11 6 -14 23 -10 14 4 11 1 -7 -8 l-30 -13 24 -8 c18 -6 28 -2 43 16 11 13
25 23 32 21 7 -1 20 14 29 33 10 20 22 33 28 29 9 -6 6 11 -9 53 -5 12 35 34
48 27 3 -2 11 7 17 20 9 20 8 24 -6 21 -9 -2 -23 -4 -30 -4 -7 -1 -10 -6 -7
-12 4 -6 -2 -5 -13 2 -11 7 -18 19 -15 28 4 13 3 14 -5 2 -9 -12 -13 -12 -26
-2 -13 11 -19 8 -41 -15 -14 -15 -31 -29 -38 -30 -7 -1 -19 -5 -27 -8 -8 -3
-21 -2 -29 3 -12 8 -13 12 -1 25 16 20 7 32 -11 14 -8 -7 -24 -13 -36 -14 -19
0 -22 3 -17 23 5 17 2 23 -11 23 -11 0 -15 5 -11 15 3 9 0 15 -8 15 -7 0 -38
14 -70 31 -31 17 -60 29 -63 26 -3 -3 17 -17 44 -31 69 -35 122 -76 98 -76
-18 0 -18 -1 1 -21 10 -11 26 -18 36 -16 10 3 21 1 24 -4 3 -5 2 -9 -3 -10 -4
0 -15 -2 -23 -4 -45 -9 -59 -7 -105 18 -27 14 -47 26 -43 27 4 0 -17 37 -45
83 -29 45 -61 108 -72 140 -10 31 -23 57 -28 57 -5 0 -6 -8 -2 -17z m493 -279
c31 -15 43 -34 22 -34 -15 0 -60 31 -60 41 0 12 2 12 38 -7z m-299 -27 c28
-12 30 -15 17 -26 -17 -14 -31 -8 -46 20 -13 23 -12 23 29 6z"/>
<path d="M1691 1863 c24 -33 123 -133 131 -133 5 0 -19 34 -53 75 -33 41 -67
75 -76 75 -13 0 -13 -3 -2 -17z"/>
<path d="M484 1829 c-7 -11 4 -29 17 -29 6 0 17 -7 25 -15 17 -17 44 -20 44
-6 0 5 -9 13 -20 16 -11 3 -20 12 -20 20 0 15 -38 27 -46 14z"/>
<path d="M2197 1810 c-16 -17 -22 -30 -15 -29 7 0 23 13 36 30 30 38 15 37
-21 -1z"/>
<path d="M578 1709 c-1 -28 0 -53 5 -56 4 -2 7 21 7 51 0 70 -7 73 -12 5z"/>
<path d="M2140 1739 c-15 -28 -12 -59 6 -59 13 0 14 3 5 14 -10 12 -5 16 24
26 39 13 39 25 0 32 -18 4 -29 0 -35 -13z"/>
<path d="M925 1722 c-14 -9 -13 -33 0 -29 6 1 9 8 9 15 -2 10 1 10 14 0 13
-11 14 -11 11 1 -6 18 -20 23 -34 13z"/>
<path d="M2195 1690 c-18 -8 -17 -9 6 -9 34 -1 59 -27 32 -33 -13 -3 -7 -9 22
-22 34 -15 37 -19 21 -25 -17 -7 -18 -8 -3 -14 9 -3 17 -11 17 -17 0 -6 -4 -9
-9 -5 -5 3 -13 0 -17 -6 -5 -8 -3 -9 6 -4 10 6 12 3 8 -13 -5 -17 -2 -22 14
-22 14 0 18 -5 15 -15 -4 -8 -2 -17 4 -21 6 -4 6 -11 -2 -20 -9 -11 -8 -14 9
-14 14 0 20 7 20 25 0 14 -4 25 -8 25 -5 0 -6 10 -2 22 4 18 2 20 -16 16 -12
-4 -22 -2 -22 3 0 5 7 9 15 9 8 0 15 5 15 10 0 6 -4 10 -8 10 -5 0 -8 19 -8
41 1 34 -4 46 -27 65 -30 25 -49 28 -82 14z"/>
<path d="M862 1595 c4 -4 0 -14 -10 -21 -15 -11 -14 -13 12 -24 16 -6 34 -9
40 -7 6 2 -4 7 -22 11 -30 7 -31 9 -16 20 14 11 15 14 3 21 -8 5 -11 5 -7 0z"/>
<path d="M803 1514 c3 -4 0 -19 -8 -34 -12 -23 -12 -27 0 -27 8 0 12 4 9 9 -3
4 2 15 10 24 21 20 20 34 -1 34 -9 0 -14 -3 -10 -6z"/>
<path d="M1900 1490 c6 -12 23 -26 38 -31 17 -6 22 -13 15 -17 -8 -5 -9 -13
-3 -22 6 -8 10 -10 10 -4 0 7 11 14 25 16 29 6 32 0 8 -18 -17 -12 -17 -13 3
-14 28 0 50 45 26 55 -9 3 -18 1 -20 -4 -6 -18 -29 -12 -35 8 -2 10 -19 26
-37 35 -42 20 -43 20 -30 -4z"/>
<path d="M2004 1501 c4 -6 19 -17 34 -25 23 -12 30 -12 45 -1 13 9 15 15 6 20
-6 4 -15 1 -20 -6 -7 -11 -14 -10 -40 5 -18 10 -29 14 -25 7z"/>
<path d="M725 1460 c3 -5 2 -10 -4 -10 -5 0 -8 -9 -6 -20 2 -11 1 -20 -3 -20
-4 0 -8 -10 -9 -22 -2 -23 -2 -23 17 2 11 14 18 31 15 38 -2 6 0 12 6 12 6 0
8 4 5 9 -4 5 0 12 6 14 7 3 3 6 -10 6 -13 1 -20 -3 -17 -9z"/>
<path d="M2263 1427 c-3 -5 12 -7 33 -5 25 2 39 -2 42 -11 3 -8 0 -11 -6 -7
-6 3 -13 2 -17 -4 -6 -9 7 -14 28 -11 4 0 7 -3 7 -9 0 -5 -8 -10 -17 -10 -15
0 -16 -2 -3 -10 23 -14 33 4 26 44 -7 34 -8 35 -47 33 -23 -1 -43 -6 -46 -10z"/>
<path d="M2096 1373 c-3 -3 -6 -15 -6 -25 0 -10 -5 -18 -11 -18 -5 0 -7 -4 -4
-10 3 -5 1 -10 -6 -10 -7 0 -10 -3 -6 -6 3 -3 12 -2 19 2 7 5 22 8 33 9 13 0
21 8 23 23 2 12 10 22 19 22 9 0 14 3 10 6 -9 9 -63 14 -71 7z"/>
<path d="M2908 1363 c17 -2 47 -2 65 0 17 2 3 4 -33 4 -36 0 -50 -2 -32 -4z"/>
<path d="M1890 1340 c-37 -6 -40 -7 -15 -10 17 -1 35 -3 42 -4 17 -2 133 -144
133 -163 0 -4 9 -14 19 -20 11 -7 25 -28 32 -48 7 -19 16 -35 20 -35 4 0 12
-15 20 -32 7 -18 16 -35 20 -38 13 -9 38 -80 33 -93 -2 -7 9 -26 26 -42 16
-16 30 -26 30 -22 0 18 -74 182 -107 238 -39 67 -131 193 -180 245 -26 28 -32
30 -73 24z"/>
<path d="M2280 1335 c-7 -9 -10 -18 -6 -22 3 -3 6 -1 6 5 0 8 11 10 30 7 19
-3 30 -1 30 7 0 6 -3 8 -6 5 -4 -3 -15 -2 -24 3 -13 7 -21 5 -30 -5z"/>
<path d="M1718 1333 c23 -2 61 -2 85 0 23 2 4 4 -43 4 -47 0 -66 -2 -42 -4z"/>
<path d="M151 1306 c8 -8 208 -11 215 -3 4 4 -44 7 -106 7 -62 0 -111 -2 -109
-4z"/>
<path d="M684 1284 c6 -34 8 -34 27 -13 16 16 15 18 -7 28 -23 10 -24 9 -20
-15z"/>
<path d="M2137 1298 c-9 -4 -14 -15 -11 -22 3 -9 -6 -18 -25 -24 -37 -13 -40
-20 -6 -18 14 0 25 4 25 9 0 4 7 7 15 7 21 0 19 -19 -4 -28 -15 -6 -16 -9 -6
-19 10 -9 16 -6 25 18 7 16 19 29 26 29 8 0 14 4 14 9 0 5 10 7 22 3 14 -3 19
-1 14 6 -8 13 -56 12 -56 0 0 -4 -7 -8 -16 -8 -24 0 -11 24 17 30 23 6 23 6 3
12 -12 3 -28 1 -37 -4z"/>
<path d="M2406 1246 c3 -27 10 -58 15 -70 6 -14 7 -5 2 29 -3 28 -10 59 -15
70 -5 13 -6 3 -2 -29z"/>
<path d="M2178 1230 c-10 -9 -18 -24 -18 -33 0 -8 -8 -18 -17 -20 -12 -3 -9
-5 8 -6 16 -1 30 -9 37 -23 6 -13 11 -17 11 -10 1 7 15 13 34 13 17 1 24 3 15
6 -23 6 -23 19 -1 27 12 5 13 10 5 18 -8 8 -15 8 -26 -2 -9 -7 -14 -15 -12
-19 2 -3 -2 -12 -10 -19 -21 -19 -18 7 3 30 9 10 11 18 5 18 -6 0 -14 -4 -17
-10 -8 -13 -25 -13 -25 0 0 6 14 13 30 17 19 3 30 11 29 22 0 11 -2 12 -6 3
-3 -8 -9 -10 -16 -4 -8 6 -18 3 -29 -8z"/>
<path d="M2232 1104 c-18 -20 -30 -39 -27 -42 2 -3 14 7 26 21 11 15 26 27 32
26 8 0 8 -2 0 -6 -7 -2 -13 -11 -13 -19 0 -8 6 -11 15 -8 8 4 15 1 15 -5 0 -6
-12 -12 -27 -12 -25 -1 -24 -3 10 -12 46 -13 48 -23 3 -23 -19 0 -32 4 -30 8
3 4 1 8 -5 8 -12 0 -25 -19 -14 -22 4 0 20 -2 34 -3 14 -1 38 -5 52 -9 16 -4
27 -2 27 4 0 5 -4 10 -10 10 -5 0 -7 7 -4 15 4 8 11 12 17 8 6 -3 7 -1 3 5 -4
7 -13 12 -21 12 -8 0 -17 5 -21 12 -5 7 -2 9 7 4 8 -4 6 -1 -4 7 -10 8 -19 24
-20 36 -2 29 -8 27 -45 -15z"/>
<path d="M2432 1098 c2 -23 8 -41 13 -39 6 1 8 8 6 15 -2 6 -3 21 -3 33 1 12
-3 25 -9 28 -7 5 -9 -8 -7 -37z"/>
<path d="M688 1009 c7 -10 11 -28 8 -42 -2 -14 -2 -28 2 -31 3 -4 5 -24 5 -46
0 -22 4 -43 9 -46 6 -4 5 -10 -3 -15 -11 -7 -11 -9 -1 -9 19 0 25 24 14 64
-13 47 2 56 94 56 86 0 80 6 -14 14 -80 7 -92 10 -92 30 0 8 -8 20 -17 27 -16
13 -17 12 -5 -2z"/>
<path d="M818 1003 c17 -2 47 -2 65 0 17 2 3 4 -33 4 -36 0 -50 -2 -32 -4z"/>
<path d="M1944 1003 c7 -7 87 -5 95 3 2 2 -20 4 -49 4 -29 0 -50 -3 -46 -7z"/>
<path d="M1379 992 c-47 -15 -120 -45 -117 -48 2 -1 22 3 43 11 22 8 57 14 78
15 21 0 36 4 32 9 -3 5 5 12 17 14 16 3 13 4 -8 4 -17 -1 -37 -3 -45 -5z"/>
<path d="M2260 989 c-12 -8 -10 -9 7 -4 18 5 22 3 17 -9 -3 -9 -11 -16 -17
-16 -6 0 -7 -3 -4 -7 4 -3 16 2 27 12 16 14 17 20 8 27 -17 10 -20 10 -38 -3z"/>
<path d="M2294 945 c-4 -8 -14 -15 -23 -16 -9 0 -3 -5 12 -11 21 -7 32 -7 40
1 8 8 6 11 -7 11 -15 0 -16 3 -6 15 9 11 9 15 1 15 -6 0 -14 -7 -17 -15z"/>
<path d="M1228 904 c-27 -13 -48 -26 -48 -28 0 -1 24 5 53 15 28 10 64 18 80
19 15 0 27 5 27 10 0 18 -64 9 -112 -16z"/>
<path d="M1375 910 c-3 -5 7 -12 22 -15 92 -20 120 -29 167 -54 86 -45 147
-91 209 -154 31 -33 57 -53 57 -46 0 20 -88 107 -161 159 -81 58 -144 89 -194
96 -22 4 -48 10 -57 15 -22 12 -35 11 -43 -1z"/>
<path d="M1155 880 c-10 -11 -16 -20 -13 -20 9 0 -183 -188 -198 -194 -15 -6
-19 -43 -6 -62 4 -6 18 -15 32 -20 24 -7 31 -9 56 -12 7 -1 19 -17 27 -35 19
-40 29 -90 16 -82 -14 9 -11 -1 9 -35 10 -16 22 -27 25 -23 4 3 7 0 7 -7 0 -7
2 -11 5 -8 8 8 -6 39 -14 33 -4 -2 -8 14 -9 37 -2 49 -18 112 -39 153 -25 49
-49 57 -79 28 -13 -13 -16 -14 -12 -3 2 8 18 21 34 29 16 8 31 17 34 21 3 3
14 10 25 14 16 6 17 9 5 17 -13 8 -12 11 3 23 10 8 20 22 21 30 1 9 22 37 46
61 24 25 40 45 36 45 -5 0 -3 7 4 15 19 22 6 18 -15 -5z m-122 -272 c-2 -5 -5
-8 -8 -8 -57 0 -60 1 -45 10 17 11 56 9 53 -2z"/>
<path d="M2297 879 c-4 -17 -3 -19 6 -10 17 17 31 13 17 -4 -10 -12 -9 -15 4
-15 10 0 14 -5 11 -10 -4 -6 -12 -7 -18 -3 -7 4 -6 0 2 -10 19 -23 42 -22 38
3 -2 11 -6 23 -10 26 -4 4 -7 16 -7 26 0 26 -36 23 -43 -3z"/>
<path d="M1350 838 c0 -13 -5 -29 -12 -36 -21 -21 -2 -23 22 -2 25 21 50 26
50 10 0 -5 16 -17 36 -25 21 -8 43 -23 50 -33 7 -9 14 -12 14 -5 0 25 -111
100 -131 88 -5 -4 -8 -1 -7 6 2 6 -3 14 -9 16 -8 3 -13 -4 -13 -19z"/>
<path d="M2803 832 c-18 -2 -33 -7 -33 -11 0 -7 91 -4 98 4 6 6 -34 10 -65 7z"/>
<path d="M1165 813 c-50 -15 -79 -32 -71 -40 2 -3 15 2 28 10 12 9 59 20 102
26 44 6 82 13 84 16 11 11 -97 2 -143 -12z"/>
<path d="M732 795 c1 -17 8 -35 13 -41 6 -6 16 -21 24 -32 8 -12 27 -26 43
-33 15 -6 28 -16 28 -21 0 -5 4 -7 9 -4 5 4 11 1 13 -6 3 -9 6 -9 12 0 3 6 -1
18 -11 27 -10 8 -37 32 -60 52 -24 21 -43 42 -43 49 0 6 -7 18 -16 25 -14 12
-16 10 -12 -16z"/>
<path d="M2461 783 c-1 -34 7 -38 44 -24 18 7 17 8 -7 14 -15 4 -29 15 -31 25
-3 9 -5 2 -6 -15z"/>
<path d="M2256 784 c-7 -23 1 -54 15 -54 11 0 11 27 0 55 -8 20 -8 20 -15 -1z"/>
<path d="M1215 780 c-3 -6 3 -10 14 -10 12 0 21 -4 21 -10 0 -5 -7 -6 -17 -3
-12 5 -14 3 -8 -7 6 -10 4 -12 -11 -6 -46 19 -54 15 -10 -5 l48 -23 19 25 c10
13 17 28 16 33 -4 13 -65 18 -72 6z"/>
<path d="M2065 770 l-50 -7 58 -1 c37 -1 56 2 52 8 -3 6 -7 9 -8 8 -1 0 -24
-4 -52 -8z"/>
<path d="M600 763 c2 -24 38 -78 54 -81 19 -4 19 -3 3 19 -10 13 -22 34 -29
47 -11 21 -29 31 -28 15z"/>
<path d="M897 746 c-22 -17 -22 -26 2 -26 23 0 33 11 23 27 -5 8 -12 8 -25 -1z"/>
<path d="M2344 749 c-4 -8 0 -9 15 -4 12 4 21 2 21 -4 0 -11 -12 -15 -42 -12
-10 1 -18 -2 -18 -7 0 -5 14 -8 31 -7 34 2 56 25 36 37 -17 11 -35 10 -43 -3z"/>
<path d="M1580 721 c8 -5 31 -13 52 -16 41 -7 132 -61 124 -73 -3 -5 2 -9 10
-9 26 0 -35 54 -85 75 -54 23 -125 39 -101 23z"/>
<path d="M63 713 c-10 -3 -10 -9 0 -24 12 -19 47 -27 47 -10 0 8 -28 42 -33
40 -1 0 -7 -3 -14 -6z"/>
<path d="M1554 669 c3 -17 6 -35 6 -40 0 -5 4 -9 10 -9 5 0 7 7 4 15 -4 10 0
15 11 15 17 0 17 1 1 19 -13 15 -14 20 -4 24 7 3 2 6 -11 6 -21 1 -23 -2 -17
-30z"/>
<path d="M1140 688 c0 -12 49 -56 68 -63 19 -5 22 -3 19 17 -4 25 -10 28 -24
14 -5 -5 -2 -6 6 -1 10 6 12 4 6 -5 -6 -10 -12 -7 -26 11 -10 13 -19 20 -19
15 0 -5 -7 -3 -15 4 -8 7 -15 10 -15 8z"/>
<path d="M1080 663 c0 -6 5 -15 10 -18 6 -4 8 -11 4 -16 -3 -5 0 -8 7 -7 6 2
14 -3 17 -11 3 -8 0 -11 -7 -7 -7 5 -9 1 -4 -9 4 -12 8 -13 13 -5 5 9 10 6 15
-9 4 -13 9 -20 12 -18 2 3 -2 18 -11 34 -22 40 -56 80 -56 66z"/>
<path d="M710 631 c0 -10 6 -23 13 -29 28 -23 173 -47 196 -33 16 10 8 14 -84
31 -33 7 -75 20 -92 31 -32 18 -33 18 -33 0z"/>
<path d="M1595 635 c25 -9 107 -12 94 -4 -8 5 -34 8 -59 8 -25 0 -40 -2 -35
-4z"/>
<path d="M2308 633 c6 -2 12 -9 12 -14 0 -6 -4 -8 -9 -5 -4 3 -8 -8 -7 -24 1
-17 7 -30 14 -30 6 0 11 3 10 8 -3 12 14 57 26 64 6 4 -5 7 -24 7 -19 0 -29
-3 -22 -6z"/>
<path d="M1540 611 c0 -17 47 -97 84 -144 27 -35 29 -40 19 -82 -8 -35 -7 -45
4 -49 9 -4 13 3 13 24 0 16 5 40 12 54 9 22 7 31 -15 63 -15 21 -37 49 -49 63
-13 14 -33 38 -46 54 -12 16 -22 23 -22 17z"/>
<path d="M1260 585 c0 -27 -33 -99 -50 -110 -17 -10 -11 -49 15 -109 24 -55
46 -70 62 -42 4 7 15 16 23 19 9 3 4 6 -12 6 -19 1 -32 11 -47 35 -25 40 -26
59 -6 94 8 15 21 44 29 64 10 24 22 38 38 41 21 4 20 4 -4 6 -16 0 -28 6 -28
11 0 6 -4 10 -10 10 -5 0 -10 -11 -10 -25z"/>
<path d="M1840 603 c0 -5 36 -53 80 -108 44 -55 80 -103 80 -107 0 -8 60 -22
66 -15 3 3 -19 29 -48 58 -29 30 -64 71 -78 91 -14 21 -28 38 -32 38 -5 0 -8
6 -8 13 0 8 -11 19 -25 25 -30 14 -35 15 -35 5z"/>
<path d="M1625 581 c-13 -6 0 -8 40 -9 43 0 53 3 35 8 -32 10 -50 10 -75 1z"/>
<path d="M2058 583 c17 -2 47 -2 65 0 17 2 3 4 -33 4 -36 0 -50 -2 -32 -4z"/>
<path d="M2432 537 c-11 -28 -28 -72 -37 -96 -9 -25 -25 -57 -36 -73 l-20 -28
20 0 c14 0 19 5 15 15 -4 8 6 31 20 49 14 19 26 38 26 43 0 5 9 25 20 45 23
43 32 85 20 93 -4 3 -17 -19 -28 -48z"/>
<path d="M2886 544 c-5 -14 -16 -16 -59 -11 -28 4 -59 2 -67 -3 -11 -7 1 -10
40 -11 30 0 65 -2 78 -5 18 -3 22 1 22 21 0 29 -5 32 -14 9z"/>
<path d="M1760 466 c-19 -13 -46 -36 -60 -52 -19 -21 -14 -18 20 9 24 21 65
44 90 52 39 12 41 14 15 14 -16 0 -46 -11 -65 -23z"/>
<path d="M2277 473 c4 -11 3 -14 -5 -9 -7 4 -12 1 -12 -8 0 -9 -4 -16 -10 -16
-5 0 -10 -9 -10 -21 0 -11 -4 -17 -10 -14 -6 4 -7 -1 -3 -11 5 -14 3 -16 -11
-11 -14 6 -17 3 -12 -9 5 -12 1 -14 -17 -10 -12 3 -16 3 -9 0 6 -3 12 -13 12
-21 0 -14 -3 -14 -20 2 -20 18 -29 8 -11 -11 14 -14 -12 -32 -34 -23 -19 7
-18 8 3 8 23 1 30 15 12 26 -5 3 -10 1 -10 -5 0 -6 -4 -9 -9 -6 -5 3 -11 -1
-15 -9 -3 -9 3 -19 15 -25 11 -6 17 -14 15 -19 -10 -15 91 6 125 26 43 27 72
73 57 93 -8 12 -9 12 -4 -2 3 -10 1 -18 -4 -18 -6 0 -10 5 -10 12 0 6 -3 8 -6
5 -4 -4 -1 -14 7 -24 12 -15 12 -16 -3 -10 -11 4 -22 0 -30 -11 -19 -26 -86
-64 -98 -57 -15 9 31 52 49 46 10 -3 13 1 8 13 -6 14 -3 17 9 12 11 -4 14 -1
12 12 -2 9 5 25 15 34 10 9 16 22 12 27 -3 6 -1 11 4 11 6 0 11 9 11 20 0 11
-4 20 -10 20 -5 0 -6 -7 -3 -17z"/>
<path d="M990 474 c0 -25 67 -109 116 -146 55 -41 94 -92 94 -122 0 -9 4 -16
9 -16 11 0 -3 66 -18 84 -7 8 -7 16 -1 22 11 11 -3 65 -27 99 -7 11 -13 28
-13 38 0 16 -3 17 -15 7 -22 -18 -19 -32 20 -88 19 -28 31 -53 26 -56 -10 -7
-33 18 -26 27 3 4 2 5 -1 2 -20 -14 -89 46 -138 120 -14 22 -26 35 -26 29z"/>
<path d="M1753 429 c-18 -12 -33 -25 -33 -31 0 -10 55 26 65 42 9 14 4 12 -32
-11z"/>
<path d="M1801 370 c-40 -36 -61 -69 -61 -92 1 -7 7 1 14 18 14 31 66 87 74
79 2 -2 -5 -16 -15 -32 -25 -35 -35 -63 -24 -63 5 0 14 13 19 28 5 16 23 44
40 63 26 30 28 35 11 35 -10 0 -36 -16 -58 -36z"/>
<path d="M1879 383 c-1 -5 -1 -12 0 -16 1 -4 -5 -18 -14 -30 -8 -12 -15 -26
-15 -32 1 -5 8 3 16 18 9 16 18 27 21 24 2 -3 -3 -17 -12 -31 -10 -14 -15 -33
-11 -41 4 -10 2 -14 -5 -9 -8 4 -9 -4 -5 -27 l6 -34 -15 35 -14 35 6 -45 c3
-25 7 -47 9 -49 2 -2 -2 -11 -9 -19 -9 -13 -9 -14 1 -8 7 4 12 1 12 -9 0 -9
-4 -13 -10 -10 -6 4 -9 -9 -9 -32 1 -28 3 -31 6 -13 3 14 8 27 13 30 4 3 14
40 23 82 19 93 43 147 71 158 21 9 21 9 -1 9 -12 1 -25 -3 -28 -9 -3 -5 -11
-10 -17 -10 -6 0 -6 6 2 15 11 13 10 14 -5 9 -13 -5 -16 -4 -11 4 4 7 5 12 2
12 -3 0 -7 -3 -7 -7z"/>
<path d="M1415 350 c-4 -6 19 -10 61 -10 37 0 65 2 63 4 -11 9 -118 15 -124 6z"/>
<path d="M2050 311 c0 -38 -9 -49 -49 -57 -7 -1 -19 -8 -25 -15 -8 -8 -5 -8
13 1 23 12 24 12 18 -26 -6 -38 -6 -38 5 -8 10 32 53 64 85 64 14 0 15 2 4 9
-9 6 -12 18 -7 36 6 22 4 26 -8 22 -9 -4 -16 -2 -16 3 0 6 -4 10 -10 10 -5 0
-10 -18 -10 -39z"/>
<path d="M1676 283 c9 -55 20 -60 16 -8 -2 25 -8 45 -13 45 -6 0 -7 -16 -3
-37z"/>
<path d="M2857 303 c-2 -10 -8 -26 -12 -35 -5 -14 -2 -18 13 -18 16 0 20 6 18
30 -3 36 -12 47 -19 23z"/>
<path d="M2295 260 c-16 -3 -25 -8 -20 -12 6 -3 26 -3 45 1 21 4 29 9 20 12
-8 3 -28 3 -45 -1z"/>
<path d="M1116 245 c-4 -11 -20 -15 -57 -15 -69 0 -56 -12 15 -14 52 -1 56 0
56 21 0 26 -5 30 -14 8z"/>
<path d="M1727 247 c-4 -11 -5 -23 -2 -28 4 -5 -1 -6 -9 -3 -20 8 -20 -6 -2
-32 13 -17 15 -17 21 -2 4 9 5 31 3 50 -2 26 -5 29 -11 15z"/>
<path d="M1776 251 c-12 -19 -19 -101 -8 -101 5 0 12 24 14 53 5 56 3 64 -6
48z"/>
<path d="M2615 241 c-3 -6 -11 -9 -16 -6 -5 4 -9 -1 -9 -9 0 -18 35 -22 46 -5
3 6 2 15 -4 21 -6 6 -12 6 -17 -1z"/>
<path d="M1707 121 l6 -43 -29 6 c-40 8 -136 10 -154 3 -8 -3 -22 -8 -30 -10
-8 -3 19 -6 60 -7 90 -3 173 0 178 5 7 7 -6 49 -22 70 -13 18 -14 17 -9 -24z"/>
<path d="M1983 148 c-10 -12 -43 -85 -43 -94 0 -2 12 1 26 6 14 6 142 10 290
10 174 0 263 3 259 10 -3 5 -3 10 2 11 4 0 20 3 36 5 18 3 29 0 33 -11 7 -17
64 -21 64 -4 0 5 -5 7 -12 3 -7 -4 -8 -3 -4 4 4 7 26 12 48 12 23 0 39 2 36 5
-3 3 -54 6 -113 7 -76 1 -110 -2 -113 -10 -5 -17 -162 -16 -162 1 0 8 -3 7
-10 -3 -7 -12 -33 -15 -125 -15 -106 0 -135 5 -102 18 6 3 1 6 -13 6 -15 1
-31 -4 -37 -10 -17 -17 -46 -2 -40 20 7 27 -7 46 -20 29z"/>
<path d="M604 133 c3 -4 -6 -12 -21 -19 -26 -12 -25 -12 27 -12 30 0 45 3 33
5 -13 2 -23 11 -23 19 0 8 -5 14 -12 14 -6 0 -8 -3 -4 -7z"/>
<path d="M1423 103 c32 -8 18 -25 -18 -21 -19 2 -35 0 -35 -4 0 -18 76 -8 93
12 16 20 16 20 -21 19 -20 -1 -29 -3 -19 -6z"/>
<path d="M815 79 c-44 -10 60 -12 493 -9 28 0 52 4 52 10 0 11 -496 10 -545
-1z"/>
<path d="M1741 44 c-14 -39 -10 -50 14 -41 16 7 21 62 7 71 -5 3 -14 -11 -21
-30z"/>
<path d="M1892 40 c-24 -32 -27 -40 -13 -40 14 0 53 58 43 64 -5 3 -19 -8 -30
-24z"/>
</g>
</svg>
