<?xml version="1.0" standalone="no"?>
<!DOCTYPE svg PUBLIC "-//W3C//DTD SVG 20010904//EN"
 "http://www.w3.org/TR/2001/REC-SVG-20010904/DTD/svg10.dtd">
<svg version="1.0" xmlns="http://www.w3.org/2000/svg"
 width="241.000000pt" height="212.000000pt" viewBox="0 0 241.000000 212.000000"
 preserveAspectRatio="xMidYMid meet">
<metadata>
Created by potrace 1.10, written by Peter Selinger 2001-2011
</metadata>
<g transform="translate(0.000000,212.000000) scale(0.050000,-0.050000)"
fill="#000000" stroke="none">
<path d="M3230 3973 c-80 -87 -127 -222 -120 -346 11 -189 43 -355 84 -436
102 -200 205 -222 316 -68 39 54 87 104 106 111 19 7 39 19 44 26 13 15 151
80 172 80 99 0 176 286 102 382 -61 80 -194 95 -260 29 -76 -76 -108 -58 -119
70 -18 195 -205 283 -325 152z m199 -144 c17 -18 31 -48 31 -67 0 -20 18 -52
40 -72 22 -20 40 -29 40 -21 0 9 14 5 30 -9 17 -14 30 -17 31 -7 0 9 13 0 30
-22 25 -34 29 -34 29 -5 0 26 18 34 71 34 63 0 70 -5 59 -41 -7 -22 -4 -53 8
-67 26 -31 -56 -132 -107 -132 -17 0 -75 -31 -128 -70 -54 -38 -108 -70 -120
-70 -13 0 -23 -13 -23 -28 0 -15 -13 -33 -30 -39 -16 -7 -30 -4 -30 5 0 9 -18
36 -39 61 -71 81 -109 573 -41 531 8 -5 31 4 52 20 49 37 58 37 97 -1z"/>
<path d="M491 3229 c-40 -41 -40 -178 1 -291 17 -49 34 -101 38 -118 4 -16 35
-106 70 -200 34 -93 71 -195 80 -226 68 -215 284 -154 284 80 0 69 112 262
193 334 33 29 43 61 43 136 0 164 -19 181 -188 173 l-144 -7 -66 75 c-75 86
-245 109 -311 44z m191 -134 c18 -19 61 -35 95 -35 35 0 63 -9 63 -20 0 -11
17 -20 39 -20 21 0 44 -9 51 -20 7 -12 20 -16 29 -11 20 13 101 -56 101 -86 0
-13 -11 -21 -25 -18 -14 3 -28 -19 -31 -50 -4 -30 -15 -55 -25 -55 -10 0 -12
-14 -6 -31 8 -21 -2 -35 -30 -43 -24 -6 -43 -21 -44 -33 -1 -50 -78 -119 -106
-96 -15 13 -33 17 -40 9 -7 -7 -13 2 -13 21 0 18 -9 33 -20 33 -11 0 -20 19
-20 42 0 23 -14 91 -32 151 -28 98 -28 113 -1 156 34 51 -35 53 -74 3 -9 -12
-11 5 -4 38 7 33 14 71 15 84 4 32 39 24 78 -19z"/>
<path d="M2157 3025 c-16 -19 -45 -60 -64 -91 -19 -31 -56 -64 -81 -73 -85
-33 -424 -404 -464 -509 -7 -17 -43 -32 -85 -36 -85 -7 -113 -89 -54 -155 30
-33 30 -49 2 -183 -17 -82 -40 -191 -51 -245 -46 -224 17 -514 159 -728 34
-50 61 -103 61 -116 0 -72 374 -389 459 -389 58 0 101 -22 101 -51 0 -19 19
-23 67 -16 41 7 90 -1 127 -20 32 -17 90 -32 128 -33 638 -22 888 -20 948 9
36 17 109 40 163 51 125 27 175 60 366 246 239 230 305 505 190 795 -28 71
-73 195 -101 275 -28 80 -85 197 -126 260 -42 63 -110 167 -151 232 -209 328
-345 439 -684 560 -75 26 -227 84 -337 128 -344 138 -511 163 -573 89z m457
-224 c46 -23 94 -41 107 -41 13 0 72 -27 132 -60 60 -33 123 -60 140 -60 56 0
324 -136 350 -178 17 -27 47 -42 85 -42 87 0 144 -56 97 -94 -19 -16 -24 -24
-12 -17 13 6 38 -3 55 -20 18 -17 40 -27 50 -20 9 6 28 -2 41 -17 29 -36 -4
-60 -59 -42 -57 18 -49 -14 20 -80 32 -31 76 -89 96 -128 21 -40 66 -125 101
-189 35 -64 63 -141 63 -171 0 -29 12 -71 26 -93 243 -363 24 -810 -473 -962
-265 -81 -987 -55 -1223 44 -219 91 -273 121 -330 181 -35 38 -71 68 -80 68
-10 0 -23 17 -29 38 -7 21 -46 91 -88 155 -164 255 -195 511 -106 871 54 219
55 242 3 226 -73 -23 -86 11 -28 72 36 37 76 58 112 58 59 0 63 3 200 182 102
133 174 195 296 257 50 25 122 62 160 83 82 45 170 38 294 -21z"/>
<path d="M2225 2597 c-58 -58 -6 -146 79 -134 71 11 68 144 -4 153 -28 3 -61
-5 -75 -19z"/>
<path d="M2744 2516 c-71 -71 33 -193 111 -131 55 44 16 155 -55 155 -18 0
-43 -11 -56 -24z"/>
<path d="M3275 2385 c-41 -9 -48 -97 -10 -110 14 -5 49 -2 79 6 37 11 61 7 77
-13 28 -33 146 -39 135 -6 -4 11 -16 21 -26 21 -11 0 -37 15 -58 33 -22 19
-33 23 -25 10 10 -17 -3 -23 -44 -20 -33 2 -56 9 -52 16 15 24 -42 71 -76 63z"/>
<path d="M1795 2283 c37 -23 -28 -77 -105 -88 -40 -6 -27 -10 40 -12 71 -2 91
3 70 17 -22 14 -7 19 55 20 47 0 85 7 85 16 0 34 -51 64 -109 64 -39 -1 -52
-7 -36 -17z"/>
<path d="M2051 2204 c-76 -17 -155 -46 -176 -63 -167 -140 -215 -257 -215
-523 0 -268 135 -448 480 -641 l190 -106 350 -1 c420 0 454 14 708 289 45 48
96 103 112 120 17 18 52 73 78 122 26 49 62 106 80 126 133 155 -31 676 -194
618 -15 -5 -42 5 -62 23 -29 27 -113 33 -523 40 -269 5 -534 14 -589 19 -57 5
-160 -4 -239 -23z m1086 -172 c407 -11 500 -122 353 -422 -27 -55 -50 -114
-50 -131 0 -18 -22 -51 -50 -75 -27 -24 -50 -51 -50 -59 0 -31 -292 -258 -373
-290 -285 -113 -813 29 -1008 271 -183 227 -170 556 25 657 147 75 158 76
1153 49z"/>
<path d="M2860 1679 c-138 -62 -147 -68 -195 -139 -54 -79 -62 -280 -16 -391
28 -66 68 -102 43 -38 -6 17 -4 27 4 21 36 -22 73 30 76 109 3 85 33 124 81
105 17 -6 27 4 28 27 2 96 101 182 129 111 13 -34 -37 -84 -84 -84 -14 0 -26
-10 -26 -21 0 -12 9 -16 20 -9 11 7 20 1 20 -14 0 -16 6 -18 15 -6 8 11 33 30
55 42 22 12 41 41 42 65 1 23 13 55 27 71 29 36 83 20 68 -20 -8 -20 -2 -25
21 -16 17 7 32 25 32 40 0 22 22 26 90 20 112 -11 118 19 19 106 -89 78 -297
88 -449 21z"/>
<path d="M4113 2623 c-24 -26 -33 -73 -33 -168 0 -128 8 -155 115 -395 53
-119 90 -256 75 -280 -24 -39 30 -100 88 -100 52 0 65 16 139 172 46 94 123
224 172 288 102 135 137 233 128 360 l-7 90 -100 6 c-55 4 -135 -3 -178 -16
-73 -22 -81 -20 -126 28 -60 66 -219 75 -273 15z m400 -156 c151 -3 278 -69
195 -100 -18 -7 -40 0 -51 15 -12 19 -14 10 -5 -27 7 -32 4 -55 -7 -55 -11 0
-63 -63 -114 -139 -106 -157 -145 -196 -168 -169 -88 100 -167 503 -93 475 17
-6 30 -1 30 13 0 16 12 19 35 7 19 -9 99 -18 178 -20z"/>
<path d="M840 1065 c-50 -25 -73 -52 -80 -93 -14 -83 -45 -83 -89 -2 -57 107
-169 117 -295 27 -73 -52 -83 -267 -16 -367 22 -33 76 -114 120 -180 44 -66
86 -132 93 -147 7 -15 38 -55 70 -89 31 -35 57 -74 57 -88 0 -15 20 -26 45
-26 25 0 91 -6 147 -13 85 -10 104 -6 115 22 22 57 -7 128 -54 135 -63 9 -62
60 4 169 124 202 193 589 119 663 -35 35 -155 29 -236 -11z m90 -175 c52 0 61
-56 22 -139 -18 -37 -32 -97 -32 -134 -1 -62 -24 -128 -42 -115 -26 19 -83
-41 -70 -74 12 -31 17 -32 33 -7 15 24 18 23 19 -7 0 -28 -10 -34 -40 -24 -28
9 -40 4 -40 -17 0 -46 -77 -16 -112 45 -17 28 -26 36 -20 16 7 -23 4 -31 -10
-23 -12 8 -18 35 -13 60 5 26 4 45 -3 43 -7 -2 -14 3 -16 12 -3 8 -19 30 -36
47 -24 24 -26 38 -8 59 17 20 17 28 0 28 -35 0 -26 36 13 46 28 7 26 10 -8 12
-53 3 -80 38 -78 102 2 84 65 74 104 -17 34 -76 92 -97 73 -25 -13 52 181 165
214 124 6 -6 28 -12 50 -12z m-100 -608 c6 -16 4 -36 -6 -46 -22 -22 -88 2
-73 26 6 10 2 18 -10 18 -11 0 -21 9 -21 20 0 30 98 15 110 -18z"/>
</g>
</svg>
