<?xml version="1.0" standalone="no"?>
<!DOCTYPE svg PUBLIC "-//W3C//DTD SVG 20010904//EN"
 "http://www.w3.org/TR/2001/REC-SVG-20010904/DTD/svg10.dtd">
<svg version="1.0" xmlns="http://www.w3.org/2000/svg"
 width="300.000000pt" height="377.000000pt" viewBox="0 0 300.000000 377.000000"
 preserveAspectRatio="xMidYMid meet">
<metadata>
Created by potrace 1.10, written by Peter Selinger 2001-2011
</metadata>
<g transform="translate(0.000000,377.000000) scale(0.050000,-0.050000)"
fill="#000000" stroke="none">
<path d="M1423 7399 c-330 -43 -538 -185 -713 -485 -94 -160 -131 -177 -277
-119 -322 125 -305 141 -311 -277 -8 -582 5 -613 291 -655 318 -47 353 -65
397 -203 9 -27 59 -99 111 -160 288 -333 308 -474 164 -1159 -45 -212 -15
-426 85 -607 86 -156 128 -359 129 -619 1 -132 14 -217 56 -350 59 -189 66
-374 24 -609 -28 -156 114 -513 191 -483 33 12 41 78 12 96 -77 47 -116 210
-61 257 22 19 35 45 27 57 -7 11 11 6 40 -13 35 -24 52 -52 52 -90 0 -58 97
-141 200 -170 28 -8 70 -33 95 -56 25 -22 51 -35 58 -28 7 7 31 -1 54 -17 23
-16 55 -29 70 -29 16 0 66 -17 111 -39 45 -21 120 -54 167 -74 117 -48 98 -74
-72 -95 -118 -14 -156 -12 -209 15 -35 17 -131 60 -214 94 -82 34 -161 67
-175 73 -38 16 -30 -44 10 -78 33 -28 265 -107 355 -120 71 -11 43 -45 -50
-62 -201 -37 -291 -39 -319 -6 -14 18 -53 32 -87 32 -33 0 -77 14 -96 32 -46
42 -86 20 -58 -32 23 -43 98 -80 265 -130 63 -18 115 -41 115 -50 0 -27 121
-60 223 -60 101 0 130 26 52 47 -25 7 -83 13 -130 13 -47 0 -85 7 -85 16 0 36
52 64 118 64 38 0 97 9 131 19 33 10 120 34 191 52 72 19 148 46 169 61 98 69
277 16 208 -61 -60 -66 -70 -83 -62 -105 15 -47 -136 -186 -216 -198 -54 -9
-79 -25 -88 -55 -34 -119 -108 -141 -481 -142 -267 -1 -351 5 -378 27 -60 50
4 63 298 59 285 -3 577 74 606 160 14 44 -201 -26 -236 -77 -14 -20 -140 -37
-140 -18 0 8 11 20 25 26 14 6 -14 6 -62 0 -70 -10 -94 -4 -130 29 -47 44
-207 42 -179 -3 8 -14 -36 -16 -136 -6 -81 8 -170 16 -196 18 -125 10 -177
328 -107 664 14 66 31 147 37 180 23 110 -26 27 -83 -140 -118 -343 -77 -574
150 -855 132 -163 254 -402 301 -590 29 -115 51 -163 94 -198 l56 -46 1855 0
c1471 -1 1855 4 1855 24 -1 14 -23 61 -50 105 -96 156 -106 194 -113 439 l-7
239 64 43 c35 24 116 54 180 66 217 43 266 62 266 103 0 29 -19 41 -75 50
-148 24 -171 33 -223 86 -101 103 -114 193 -62 438 72 345 76 524 12 646 -73
140 -71 299 7 513 39 109 71 259 98 469 22 169 56 356 75 415 28 85 30 115 12
145 -36 57 -8 291 46 377 13 22 86 293 111 411 12 59 6 120 -23 230 -21 83
-44 204 -49 270 -6 66 -19 152 -29 190 -14 50 -11 93 10 150 52 147 4 326
-141 520 -24 33 -50 79 -57 102 -13 42 -28 52 -272 167 -71 34 -193 107 -270
162 -225 162 -304 203 -426 219 -63 9 -190 30 -284 48 -212 40 -274 40 -350 0
-33 -17 -154 -72 -270 -121 -277 -119 -333 -156 -382 -250 -27 -53 -51 -77
-74 -73 -44 8 -264 434 -333 646 -100 302 -369 524 -534 439 -55 -29 -84 -29
-318 0 -275 33 -434 36 -636 10z m977 -179 c0 -18 8 -41 18 -51 10 -10 23 -73
28 -139 4 -66 15 -141 24 -166 14 -44 11 -46 -51 -40 -70 6 -113 81 -79 136
14 22 -30 133 -62 160 -25 20 -6 111 33 156 42 49 89 20 89 -56z m-690 19 c33
-10 87 -23 120 -30 l60 -12 -44 -36 -44 -36 47 -21 c32 -15 52 -15 67 0 13 13
43 15 78 5 31 -8 61 -16 66 -16 6 0 35 -27 66 -59 32 -33 43 -54 25 -47 -25 9
-31 -3 -29 -63 2 -41 7 -58 12 -39 5 20 18 30 28 24 10 -7 18 -5 16 5 -10 64
60 142 104 115 26 -16 22 -42 -12 -76 -16 -16 -33 -81 -38 -146 -5 -64 -16
-134 -24 -155 -13 -35 -7 -36 84 -22 116 18 119 18 206 -1 65 -15 68 -13 54
33 -29 100 -37 198 -16 198 47 0 44 78 -4 149 -70 103 -37 176 43 96 20 -19
58 -50 85 -68 42 -28 46 -40 28 -70 -17 -29 -16 -44 5 -63 39 -37 34 -88 -23
-216 -28 -62 -50 -125 -50 -140 0 -32 113 -95 141 -78 10 7 19 -2 19 -20 0
-18 9 -27 20 -20 11 7 20 -2 20 -19 0 -17 -9 -31 -21 -31 -12 0 -10 -12 5 -28
22 -23 31 -20 59 23 35 53 77 19 77 -64 0 -17 14 -31 31 -31 16 0 35 -13 41
-28 6 -16 37 -39 69 -53 67 -27 67 -27 38 -80 -33 -63 -138 -96 -250 -79 -55
9 -100 14 -101 13 -14 -16 -69 -138 -64 -141 11 -8 283 24 366 43 127 30 228
105 229 171 3 182 157 286 185 124 17 -105 51 -225 55 -200 9 50 80 -211 80
-295 1 -54 10 -95 23 -95 12 0 19 30 15 70 -3 38 3 69 14 70 10 0 20 -29 21
-65 2 -89 30 -337 41 -366 7 -18 21 -19 58 -2 54 25 66 73 19 73 -62 0 -6 119
56 121 13 0 8 9 -11 21 -19 11 -35 31 -35 45 0 33 82 101 98 80 18 -26 81 -26
76 0 -6 31 -50 76 -79 80 -52 8 -75 37 -75 96 0 51 -6 58 -40 47 -22 -7 -41
-5 -42 4 -16 114 -15 145 5 141 12 -3 27 8 32 23 7 20 0 25 -24 15 -23 -9 -31
-5 -25 12 5 14 -6 42 -23 62 -30 34 -30 39 3 63 24 17 29 31 15 39 -12 8 -16
22 -10 33 6 10 -3 24 -20 30 -37 14 -6 68 39 68 14 0 31 20 39 45 8 25 18 36
22 25 13 -28 252 -18 270 12 8 13 29 18 47 11 18 -6 56 -3 86 8 29 12 67 14
84 7 18 -8 49 -12 69 -9 26 3 33 -4 21 -22 -12 -22 -9 -21 18 0 30 25 42 19
37 -19 0 -7 20 -8 47 -3 37 7 46 1 42 -28 -4 -20 -3 -27 2 -14 11 30 83 49 97
25 6 -10 33 -18 60 -18 27 0 47 -10 44 -22 -3 -12 25 -38 61 -58 41 -22 56
-40 40 -46 -14 -6 -5 -12 20 -12 26 -1 41 -11 34 -22 -7 -11 4 -21 24 -22 145
-6 176 -22 147 -77 -24 -44 12 -53 44 -11 9 12 15 10 15 -5 0 -14 9 -25 21
-25 55 0 133 -84 126 -136 -6 -52 -6 -52 9 -5 20 64 56 73 83 22 12 -22 38
-41 57 -41 26 -1 28 -4 7 -18 -21 -13 -21 -19 4 -28 17 -7 48 -48 69 -91 29
-59 31 -77 11 -69 -36 14 -35 -24 3 -61 34 -34 40 -93 10 -93 -10 0 -16 -38
-12 -85 4 -47 3 -64 -2 -39 -6 30 -21 44 -42 40 -38 -7 -37 -105 0 -151 15
-17 14 -25 -2 -25 -12 0 -21 -16 -20 -35 1 -21 5 -25 11 -10 6 14 20 25 31 25
11 0 16 -12 10 -27 -6 -15 -3 -39 7 -54 9 -16 8 -38 -3 -52 -22 -26 9 -57 39
-39 28 17 69 -90 44 -115 -27 -27 -27 -59 -1 -43 11 7 20 -2 20 -20 0 -18 9
-27 20 -20 11 7 20 -9 20 -38 0 -27 9 -55 20 -62 13 -8 13 -25 0 -50 -11 -21
-20 -73 -20 -118 0 -44 -9 -85 -20 -92 -11 -7 -20 -34 -20 -60 0 -26 -8 -53
-19 -59 -10 -7 -15 -30 -11 -51 4 -22 -1 -40 -12 -40 -11 0 -15 -9 -8 -20 7
-11 -1 -14 -19 -8 -17 7 -31 21 -31 31 0 11 -10 13 -23 5 -16 -10 -12 -22 14
-41 35 -26 34 -27 -7 -27 -49 0 -59 -30 -15 -47 48 -18 -9 -109 -84 -134 -36
-12 -65 -34 -65 -50 0 -34 -87 -129 -118 -129 -14 0 -19 -8 -13 -18 6 -10 -3
-23 -19 -29 -17 -7 -29 -19 -26 -27 30 -114 -456 -342 -543 -255 -26 25 -24
29 16 29 25 0 40 9 33 20 -7 11 2 20 19 20 18 0 37 13 44 30 6 16 30 26 54 23
69 -11 139 16 145 56 7 47 34 64 130 79 l76 12 -6 95 c-7 110 3 150 33 132 12
-7 17 -5 12 5 -69 139 -96 226 -66 215 51 -20 31 21 -30 62 -32 22 -58 44 -57
50 6 74 -6 104 -34 81 -25 -21 -30 -18 -30 20 0 32 -9 41 -31 32 -25 -9 -29
-2 -19 29 9 29 5 40 -13 38 -65 -9 -81 2 -70 46 10 41 9 42 -16 9 -27 -36
-122 -67 -100 -33 6 10 -7 19 -29 19 -22 0 -45 -8 -51 -18 -6 -10 -38 -14 -71
-9 -45 7 -60 2 -60 -22 0 -17 7 -29 15 -27 8 3 33 -5 55 -17 22 -12 70 -29
106 -36 169 -37 369 -332 334 -493 -14 -63 -109 -118 -202 -118 -38 0 -48 -11
-48 -50 0 -32 -11 -50 -31 -50 -18 0 -71 -23 -119 -51 -136 -80 -334 -56 -439
53 -41 42 -94 82 -118 90 -90 27 -117 80 -106 209 11 125 -25 272 -73 303 -17
11 -15 15 8 16 17 0 38 -6 45 -14 8 -7 55 -17 106 -21 51 -5 116 -18 145 -29
81 -33 185 -33 172 0 -5 15 -10 36 -10 46 0 10 -7 16 -15 13 -8 -3 -17 2 -20
10 -12 36 -3 55 26 55 17 0 27 -7 21 -17 -6 -9 1 -16 15 -16 32 0 26 109 -8
140 -19 18 -19 14 -2 -19 28 -54 5 -79 -29 -33 -18 24 -27 26 -27 9 -1 -15
-10 -21 -21 -14 -11 7 -20 3 -20 -8 0 -11 -13 -16 -30 -9 -16 6 -30 24 -30 39
0 17 -21 28 -50 28 -27 0 -50 9 -50 19 0 33 -76 64 -92 38 -8 -14 -5 -18 8
-10 14 9 21 -8 20 -47 -1 -34 -10 -66 -20 -72 -9 -6 -13 14 -7 45 l10 57 -68
-75 c-38 -41 -78 -75 -89 -75 -11 0 -16 -20 -11 -44 5 -29 -10 -64 -46 -102
-32 -32 -41 -51 -22 -44 24 9 32 0 32 -39 0 -52 -57 -103 -84 -76 -7 8 -4 -11
8 -42 17 -44 16 -54 -4 -47 -14 5 -22 21 -19 35 5 20 0 21 -23 1 -22 -18 -33
-18 -44 -1 -10 18 -18 17 -29 0 -11 -18 -21 -17 -42 4 -67 66 -364 100 -386
44 -17 -44 -72 -11 -72 44 0 28 -10 68 -21 90 -22 40 -41 106 -44 152 -2 24
-24 31 -102 30 -25 0 -34 11 -27 37 13 49 -32 109 -66 88 -16 -10 -21 -8 -13
5 7 11 -8 24 -34 29 -62 12 -57 -42 13 -126 29 -35 49 -70 45 -77 -5 -7 18
-30 50 -52 33 -21 59 -51 59 -65 0 -14 14 -54 32 -88 42 -80 6 -167 -55 -134
-29 15 -38 12 -40 -16 -3 -39 -4 -44 -27 -140 -17 -75 -91 -66 -110 15 -14 57
-60 76 -60 24 0 -20 -13 -55 -29 -76 -43 -56 -38 -71 19 -57 70 17 66 -32 -10
-115 -33 -36 -60 -72 -60 -80 0 -8 -16 -19 -35 -25 -19 -7 -57 -32 -85 -57
-27 -25 -140 -117 -250 -205 -110 -88 -212 -171 -226 -185 -15 -14 -61 -25
-102 -25 -41 0 -81 -6 -88 -13 -7 -7 -98 -11 -203 -9 -210 5 -215 1 -133 -94
l56 -65 177 20 c179 20 227 14 164 -21 -57 -32 -40 -58 30 -45 73 13 155 90
155 146 0 20 34 65 75 98 41 34 94 80 117 102 23 23 51 41 61 41 39 0 247 204
247 242 0 22 11 38 25 36 37 -6 175 59 175 83 0 12 25 44 55 73 36 34 46 55
30 60 -44 16 -27 46 27 46 34 0 49 9 43 25 -6 14 1 36 15 49 20 18 24 -26 17
-225 -6 -197 -1 -264 24 -324 18 -41 45 -117 61 -168 16 -51 42 -98 58 -104
17 -7 30 -31 30 -54 0 -56 117 -199 163 -199 21 0 37 -13 37 -30 0 -22 -21
-29 -77 -27 -98 4 -126 -14 -111 -72 9 -36 2 -50 -31 -61 -52 -16 -42 -62 11
-54 21 3 112 10 202 15 111 6 185 21 230 47 60 35 121 45 426 73 55 5 103 19
107 31 5 15 13 14 23 -3 12 -19 28 -16 66 14 l49 39 -59 34 c-79 45 -92 43
-81 -14 5 -26 -1 -53 -13 -61 -14 -8 -22 5 -22 36 0 65 -38 76 -104 30 -63
-44 -84 -24 -106 104 -15 87 -43 119 -102 119 -58 0 -57 6 -8 -95 50 -104 53
-170 7 -161 -49 9 -184 234 -186 310 0 35 -11 70 -22 77 -25 15 -58 88 -88
195 -11 43 -30 77 -41 77 -11 0 -29 8 -40 17 -90 74 8 -238 191 -610 51 -105
50 -164 -3 -181 -47 -15 -218 133 -218 190 -1 17 -18 54 -40 81 -22 28 -39 61
-40 74 0 14 -16 33 -35 44 -19 10 -64 72 -100 137 l-64 118 43 47 c23 25 45
69 48 98 4 29 12 77 20 108 10 43 2 67 -33 105 -44 46 -44 51 -14 124 17 41
42 114 57 162 29 99 71 127 111 72 21 -29 48 -36 119 -31 72 4 100 -4 131 -36
21 -23 56 -42 77 -42 89 0 300 -128 300 -181 0 -48 33 -66 127 -71 98 -5 162
-39 190 -100 15 -32 39 -48 73 -48 52 0 68 29 25 47 -15 6 -12 10 9 11 19 1
44 -15 55 -37 28 -52 27 -61 -12 -61 -19 0 -28 -6 -21 -13 8 -7 -2 -25 -21
-39 -96 -70 200 -48 475 36 259 79 574 319 768 586 45 62 54 28 21 -81 -17
-54 -24 -124 -18 -155 16 -73 -37 -186 -94 -201 -35 -9 -39 -17 -20 -39 14
-17 18 -54 10 -93 -7 -38 -19 -55 -27 -41 -9 15 -19 3 -25 -29 -6 -31 2 -65
18 -81 23 -23 22 -32 -7 -61 -32 -32 -32 -35 0 -59 42 -30 44 -97 4 -137 -16
-17 -30 -40 -30 -52 0 -11 -16 -22 -35 -23 -20 0 -24 -5 -11 -11 17 -7 19 -21
5 -48 -10 -22 -28 -57 -39 -79 -15 -29 -14 -54 1 -82 26 -49 27 -48 -84 -104
-48 -24 -87 -57 -87 -74 0 -24 -28 -30 -130 -30 -153 -1 -205 -22 -151 -62 23
-16 72 -22 138 -16 123 11 167 -10 137 -64 -21 -38 -39 -41 -274 -53 -66 -3
-133 -14 -148 -24 -16 -10 -52 -20 -80 -22 -29 -3 -61 -6 -72 -8 -11 -1 6 -25
38 -54 l59 -51 -129 13 c-70 7 -208 16 -305 20 -115 4 -183 15 -193 31 -11 18
-19 13 -29 -17 -9 -27 -35 -45 -77 -51 -199 -31 -408 -53 -591 -62 -120 -6
-237 -24 -280 -42 -128 -55 -465 -62 -511 -11 -48 54 47 103 199 103 231 0
549 168 549 289 0 23 -73 9 -130 -26 -33 -20 -105 -52 -160 -72 -55 -20 -136
-52 -180 -71 -150 -65 -165 -66 -213 -11 -26 30 -65 51 -96 51 l-51 -1 48 -37
c40 -30 43 -40 18 -54 -16 -10 -35 -34 -42 -53 -27 -75 -146 18 -267 210 -53
84 -68 89 -138 43 -53 -35 -63 -86 -25 -124 19 -19 15 -24 -19 -24 -83 0 -143
39 -195 129 -30 50 -60 91 -67 90 -22 -1 -83 -52 -84 -71 -1 -10 -47 -53 -103
-96 -121 -92 -156 -73 -156 87 0 110 -29 303 -72 486 -18 75 -25 150 -17 170
9 19 16 44 17 55 1 11 48 22 105 24 57 1 129 16 160 32 31 16 106 35 165 42
60 8 135 28 168 45 153 79 394 410 262 359 -108 -41 20 141 133 192 32 14 74
57 93 96 20 38 52 82 71 96 19 15 50 55 67 90 18 35 52 85 75 110 57 63 62
165 9 206 -34 26 -37 39 -18 74 39 74 -41 175 -120 150 -10 -4 -11 54 -1 127
3 26 112 57 168 49 53 -7 64 51 27 134 -19 41 -37 114 -42 161 -4 48 -21 102
-36 120 -16 18 -35 62 -42 98 -6 36 -18 93 -25 127 -6 34 -3 81 9 105 40 82
45 168 11 181 -26 11 -29 32 -16 127 9 63 17 174 18 245 l1 130 -79 -6 c-43
-4 -110 -20 -148 -36 -48 -20 -77 -22 -91 -8 -11 11 -41 20 -66 20 -25 0 -46
9 -46 20 0 11 -8 20 -19 20 -18 0 -10 -90 12 -124 6 -10 -1 -31 -14 -48 -19
-22 -20 -35 -2 -53 35 -35 30 -122 -7 -108 -67 26 -12 -41 256 -311 84 -85
115 -158 154 -370 20 -113 21 -151 2 -173 -18 -22 -18 -33 -1 -43 23 -15 15
-77 -24 -174 -58 -148 -677 -263 -677 -125 0 14 -27 32 -60 39 -59 13 -283
138 -450 251 -44 29 -99 60 -123 67 -65 20 -75 67 -13 61 28 -4 61 -16 73 -28
28 -28 73 -27 73 2 0 13 -31 54 -70 91 -93 90 -73 152 28 87 16 -9 47 -11 70
-2 82 30 120 -14 62 -72 -41 -41 -38 -60 15 -77 38 -12 40 -16 10 -24 -43 -11
-46 -63 -4 -79 82 -32 151 177 89 273 -13 20 -19 22 -20 5 0 -14 -10 -25 -23
-25 -13 0 -8 17 13 40 22 24 37 76 40 135 5 125 5 125 40 125 19 0 30 19 30
55 0 30 13 80 29 111 41 77 22 118 -40 90 -39 -18 -46 -32 -35 -73 l12 -51
-61 49 c-44 35 -59 61 -52 92 13 55 -53 80 -112 43 -42 -26 -56 -76 -21 -76
47 0 15 -57 -45 -79 -36 -14 -107 -43 -158 -65 -52 -23 -115 -43 -140 -46 -26
-3 -50 -6 -53 -7 -4 -2 12 -29 35 -61 22 -32 41 -68 41 -80 0 -12 23 -22 50
-22 29 0 50 -11 50 -28 0 -15 20 -41 45 -58 l45 -31 -44 -45 c-40 -40 -46 -42
-57 -12 -17 44 -49 44 -50 -1 0 -31 -3 -31 -30 5 -27 35 -27 42 -1 61 20 14
23 31 11 50 -16 26 -27 14 -22 -24 4 -27 -55 -34 -75 -9 -19 22 -122 278 -122
302 0 6 17 10 38 10 34 0 37 12 28 117 l-11 116 92 76 93 76 -9 144 c-12 188
-19 202 -102 208 -67 4 -79 -8 -71 -71 4 -29 -85 -56 -117 -37 -13 8 -21 -7
-21 -39 0 -29 8 -47 18 -41 10 6 23 0 29 -14 5 -14 11 -7 13 15 2 36 4 36 21
-7 11 -26 13 -57 5 -70 -8 -13 -12 -39 -9 -58 4 -23 -8 -35 -34 -35 -47 0 -64
-37 -39 -85 13 -26 9 -39 -13 -47 -17 -7 -25 -21 -19 -31 56 -90 -130 -199
-197 -116 -24 30 -33 62 -25 88 30 95 23 150 -24 190 -35 31 -44 54 -34 91 10
40 3 53 -38 68 -39 15 -55 42 -73 126 -14 58 -29 123 -35 144 -13 46 73 32
154 -26 64 -46 94 -34 129 49 22 53 43 69 100 80 46 9 90 36 122 76 l51 63
-13 -54 c-11 -46 -7 -52 28 -43 47 13 64 48 53 107 -4 23 1 36 11 29 11 -6 15
-20 9 -29 -6 -9 -2 -22 8 -29 11 -7 17 22 13 68 -3 45 3 75 13 69 49 -31 212
71 184 115 -5 9 2 12 16 6 15 -5 35 11 46 36 11 25 40 48 66 51 25 4 70 20
100 36 55 29 167 24 294 -13z m-1255 -1064 c69 -55 -11 -150 -107 -126 -50 12
-82 87 -60 143 13 34 117 23 167 -17z m2061 -275 c56 0 75 -37 38 -74 -31 -31
-64 -15 -197 93 -59 48 -18 65 52 22 36 -23 84 -41 107 -41z m-1045 -195 c-8
-30 -22 -58 -32 -62 -11 -3 -19 -17 -19 -30 0 -48 -67 -67 -150 -41 l-80 25
70 2 c86 2 110 17 130 81 27 89 102 112 81 25z m4086 -470 c-26 -51 -29 -45
-33 60 l-3 95 26 -60 c18 -39 21 -72 10 -95z m-4023 -228 c76 -33 98 -63 69
-92 -15 -15 -36 -11 -71 12 -28 18 -61 33 -73 33 -27 0 -79 50 -79 77 0 23 64
11 154 -30z m-181 -97 c16 -16 54 -36 83 -43 30 -7 88 -35 129 -61 50 -31 91
-43 123 -35 26 7 54 3 61 -9 7 -12 47 -22 89 -22 52 0 94 -16 134 -50 32 -27
89 -56 126 -63 82 -15 162 -80 162 -131 0 -39 30 -79 145 -190 41 -40 75 -80
75 -90 0 -22 -178 -192 -189 -180 -5 5 -20 -15 -34 -44 -13 -30 -35 -49 -48
-44 -29 11 -75 -82 -56 -113 8 -12 4 -15 -10 -7 -14 8 -32 -6 -45 -35 -13 -27
-42 -55 -65 -61 -34 -9 -37 -16 -17 -36 21 -21 29 -21 41 0 12 18 30 20 65 6
26 -11 37 -20 23 -21 -14 0 -25 -19 -25 -41 0 -68 -318 -260 -431 -260 -13 0
-50 -13 -82 -30 -65 -34 -162 -39 -233 -11 -52 19 -106 131 -73 152 11 6 19
-1 19 -17 0 -84 204 -123 290 -54 11 8 88 43 171 78 141 58 219 116 219 163 0
27 -98 3 -160 -39 -57 -39 -120 -33 -120 11 0 16 -7 25 -17 19 -9 -6 -16 2
-16 18 0 16 7 24 16 18 9 -6 11 4 5 21 -7 17 -21 31 -31 31 -10 0 -26 20 -36
45 l-18 45 -2 -43 c-1 -32 -17 -47 -59 -57 -45 -9 -55 -21 -48 -51 6 -21 4
-54 -5 -74 -17 -39 -23 -56 -26 -83 -2 -10 -19 -24 -37 -31 -46 -17 -89 41
-74 100 6 25 2 51 -10 58 -12 7 -22 36 -22 63 0 28 -9 45 -20 38 -12 -7 -15
11 -7 49 9 48 5 61 -21 61 -46 0 -72 82 -71 226 0 122 29 194 77 194 37 0 47
53 20 103 -22 42 -21 44 8 20 18 -14 42 -21 53 -14 12 8 21 6 21 -3 0 -30 139
-111 170 -99 22 9 30 2 26 -22 -3 -19 5 -35 19 -37 14 -2 38 -4 54 -5 45 -4
14 -62 -41 -75 -27 -7 -42 -22 -35 -34 8 -13 1 -16 -18 -9 -36 14 -62 -76 -35
-124 19 -35 140 87 140 142 0 20 18 37 45 41 69 9 70 88 2 159 -42 44 -68 56
-106 48 -70 -14 -115 29 -225 219 -111 191 -142 419 -43 320z m1147 -166 c1
-29 3 -30 20 -4 17 26 19 25 20 -5 0 -19 11 -35 24 -35 19 0 19 -5 0 -24 -40
-40 -28 -79 20 -72 50 7 104 -94 64 -120 -12 -8 -27 -30 -34 -49 -26 -70 -182
59 -158 131 3 10 -3 12 -13 6 -11 -7 -25 3 -32 22 -7 18 -2 39 10 47 17 10 17
18 1 28 -34 21 -26 51 13 53 21 1 25 5 10 11 -38 16 -30 38 15 42 25 1 40 -10
40 -31z m-116 -199 c12 -50 -4 -108 -26 -94 -23 15 -24 129 0 129 9 0 21 -16
26 -35z m2895 -1963 c61 -57 69 -334 14 -542 -21 -82 -45 -200 -53 -260 -12
-94 -54 -196 -138 -340 -61 -106 -68 -140 -45 -219 21 -68 19 -90 -8 -143 -20
-38 -25 -70 -14 -81 25 -25 127 15 120 46 -3 13 17 29 45 36 60 15 99 86 100
182 0 39 9 80 21 92 20 20 66 262 98 517 17 131 13 331 -9 465 -18 108 19 115
51 10 47 -158 46 -347 -3 -557 -57 -244 -31 -489 65 -597 27 -31 20 -51 -14
-38 -21 8 -35 -2 -43 -30 -6 -24 -18 -43 -28 -43 -9 0 -70 -54 -135 -120 -127
-129 -227 -159 -304 -90 -49 45 -80 23 -176 -128 -148 -232 -223 -296 -364
-309 -49 -5 -114 -15 -144 -23 -41 -11 -58 -6 -67 19 -35 91 -189 114 -259 38
-66 -71 -63 -123 6 -139 30 -8 66 -22 80 -33 18 -14 25 -11 25 13 0 17 -8 32
-19 32 -10 0 -24 19 -32 42 -22 70 80 112 105 43 6 -19 39 -64 72 -99 76 -81
50 -126 -70 -126 -101 0 -285 53 -317 91 -14 17 -61 29 -116 30 -165 2 -350
165 -443 391 -30 74 -250 224 -395 270 -181 57 -204 80 -159 156 19 32 34 72
34 89 0 16 22 56 49 89 28 32 44 64 37 71 -7 7 3 13 23 13 19 0 60 18 90 39
31 22 61 34 68 27 7 -7 13 -3 13 9 0 23 26 21 85 -4 19 -8 30 -23 25 -32 -6
-9 -2 -22 10 -29 34 -21 23 -88 -15 -87 -188 0 -202 -29 -30 -64 140 -29 188
-60 127 -82 -61 -23 -51 -77 29 -161 63 -67 152 -90 114 -29 -38 62 -39 284
-1 260 9 -5 16 -1 16 9 0 49 137 74 400 74 l270 0 0 50 c0 62 7 67 77 49 34
-9 75 -4 105 12 26 14 52 22 57 17 20 -20 -26 -60 -80 -70 -115 -21 -76 -32
87 -25 162 7 167 9 230 81 35 40 87 79 114 87 57 15 160 105 160 139 0 55 -43
65 -157 36 -87 -23 -140 -25 -233 -10 -138 22 -166 14 -121 -35 17 -19 26 -39
20 -46 -7 -6 25 -17 70 -25 68 -11 118 -50 65 -50 -9 0 -35 -17 -58 -39 -44
-41 -126 -36 -126 8 0 13 -29 37 -63 52 -60 27 -147 140 -277 361 -27 46 -70
115 -95 153 -61 90 -43 113 79 96 91 -12 100 -9 111 31 12 48 381 47 544 -1
67 -20 181 7 181 42 0 8 16 18 35 23 26 7 19 15 -30 36 -83 34 -73 66 24 74
109 9 188 -28 182 -85 -4 -42 -1 -44 52 -24 31 12 57 33 57 47 0 14 -13 20
-30 13 -40 -15 -38 -6 17 69 26 35 53 58 60 50 7 -7 13 -2 13 12 0 13 8 19 18
13 30 -18 67 46 57 98 -10 53 15 59 64 13z m-2976 -273 c45 -49 91 -89 103
-89 11 0 56 -36 99 -80 43 -44 92 -80 110 -80 18 0 62 -11 97 -24 52 -18 83
-18 147 4 72 23 88 22 149 -10 72 -39 302 -19 401 34 139 75 456 25 401 -64
-7 -11 11 -42 38 -70 72 -72 86 -108 84 -208 l-2 -88 -390 4 c-214 2 -451 13
-527 23 -136 19 -173 14 -173 -23 0 -11 9 -15 20 -8 11 7 20 -1 20 -17 0 -38
-38 -50 -100 -32 -50 15 -50 15 -3 17 41 2 45 9 33 62 -8 37 -5 60 8 60 29 0
62 68 46 93 -19 29 -205 -25 -199 -57 14 -69 -199 -103 -222 -36 -5 16 1 20
16 10 17 -10 23 -3 18 23 -8 41 -107 54 -107 14 0 -44 -27 -50 -48 -11 -14 26
-51 44 -110 53 -93 14 -192 86 -192 140 0 17 -7 32 -15 34 -66 11 -108 9 -117
-6 -14 -23 -266 107 -267 138 -1 31 42 32 108 2 61 -28 73 -20 58 37 -6 24
-37 54 -69 67 -65 27 -71 43 -28 79 17 14 30 37 30 52 0 16 7 29 15 29 8 1 35
6 60 10 43 8 268 -89 367 -158 97 -68 106 -26 16 76 -140 159 -22 159 125 0z
m-763 -69 c17 -11 23 -20 14 -20 -8 0 -6 -17 5 -38 15 -29 13 -41 -9 -49 -31
-12 -70 41 -70 96 0 36 17 39 60 11z m1795 -105 c-4 -14 -30 -36 -56 -49 -64
-32 -102 2 -48 43 48 37 115 40 104 6z m185 -641 c0 -10 13 -13 29 -7 21 8 25
1 16 -23 -11 -31 -9 -31 26 -4 36 28 37 27 12 -5 -15 -19 -35 -30 -45 -24 -23
15 -130 -43 -162 -87 -43 -60 -73 -68 -132 -33 -82 48 -86 167 -5 165 30 -1
66 4 78 12 14 9 23 1 23 -17 0 -17 14 -31 30 -31 17 0 30 9 30 20 0 11 -11 20
-25 20 -20 1 -20 4 0 16 34 22 125 20 125 -2z m-939 -508 c12 -29 37 -65 58
-79 20 -14 42 -49 49 -76 10 -42 20 -47 57 -33 25 9 63 9 85 1 22 -9 65 -17
95 -18 30 0 55 -8 55 -17 0 -9 38 -25 85 -35 74 -17 86 -26 92 -79 3 -33 16
-71 28 -85 89 -109 -12 -221 -215 -238 -55 -5 -125 -19 -155 -30 -50 -20 -193
11 -168 36 4 5 -17 35 -48 68 -57 61 -61 139 -7 139 16 0 28 18 28 40 0 22 11
40 25 40 37 1 127 75 110 91 -38 39 -174 43 -186 6 -13 -41 -88 -50 -148 -17
-79 42 -119 -179 -43 -233 22 -15 46 -59 53 -98 8 -38 22 -74 31 -80 30 -19
20 -89 -13 -102 -18 -7 -58 7 -91 31 -32 24 -68 38 -79 32 -10 -7 -25 2 -31
19 -9 22 -40 31 -110 31 -85 0 -98 5 -98 40 0 22 10 40 21 40 12 0 16 -8 10
-18 -14 -24 67 -37 129 -21 l50 13 -60 15 c-130 32 -190 55 -190 74 0 11 -8
14 -18 8 -10 -6 -22 -2 -25 9 -9 26 -117 47 -117 23 0 -11 15 -24 32 -31 25
-10 27 -19 10 -40 -18 -21 -17 -28 2 -27 100 4 115 -12 67 -76 -28 -38 -29
-38 -70 5 -46 49 -54 105 -16 108 16 1 15 5 -4 13 -50 19 -75 53 -66 87 4 18
-15 56 -43 85 -89 88 -61 211 41 182 80 -22 86 -22 186 -5 49 9 139 22 200 28
61 7 117 15 124 20 7 4 17 -11 24 -35 28 -109 173 2 173 133 0 122 45 152 81
56z m2514 -351 c23 -2 42 -8 41 -14 -1 -26 30 -101 43 -101 26 0 9 -69 -35
-140 -24 -38 -44 -63 -44 -54 0 9 -11 9 -25 1 -49 -31 -100 -29 -88 3 7 16 3
30 -8 30 -10 0 -19 -13 -19 -30 0 -16 -9 -30 -20 -30 -11 0 -20 9 -20 19 0 11
-13 15 -29 9 -37 -15 -100 32 -104 76 -1 19 3 33 10 30 25 -8 94 57 118 111
13 30 34 55 46 55 12 0 16 8 10 19 -7 10 4 27 23 38 23 13 40 13 48 0 6 -10
30 -20 53 -22z"/>
<path d="M1682 6686 c-1 -13 13 -33 32 -43 28 -15 29 -25 10 -49 -21 -24 -17
-31 21 -41 64 -18 79 -16 65 7 -20 32 13 23 57 -15 37 -31 37 -29 -3 23 -24
31 -44 71 -44 87 0 22 -15 27 -59 18 -37 -7 -62 -2 -68 13 -8 18 -10 18 -11 0z"/>
<path d="M560 6450 c-14 -16 -18 -30 -10 -30 8 0 4 -13 -10 -30 -18 -21 -19
-37 -4 -56 14 -16 15 -36 3 -55 -27 -43 -23 -59 11 -46 17 6 30 2 30 -10 0
-12 14 -17 30 -10 37 14 37 178 0 232 -22 32 -27 32 -50 5z"/>
<path d="M1664 6297 c-24 -96 -14 -137 36 -137 19 0 59 -31 89 -70 29 -38 47
-70 39 -70 -8 0 2 -17 21 -39 66 -73 121 -12 69 76 -35 60 -37 81 -19 167 12
54 21 101 21 106 0 4 -37 7 -82 6 -46 0 -88 7 -95 17 -30 41 -60 20 -79 -56z"/>
<path d="M2860 6218 c0 -21 -9 -38 -20 -38 -11 0 -20 -26 -20 -58 0 -51 6 -57
45 -46 37 10 38 14 10 20 -37 7 -50 64 -15 64 11 0 20 13 20 29 0 15 16 31 35
35 28 6 27 10 -10 20 -35 10 -45 4 -45 -26z"/>
<path d="M1220 6009 c0 -21 15 -30 43 -25 64 9 71 56 9 56 -34 0 -52 -11 -52
-31z"/>
<path d="M3321 5931 c-39 -47 -17 -100 44 -107 58 -7 65 8 42 91 -13 51 -51
58 -86 16z"/>
<path d="M3201 5791 c-18 -22 -18 -39 0 -73 13 -24 20 -86 14 -138 -10 -112
12 -150 103 -170 75 -16 75 -20 14 140 -17 44 -31 109 -31 143 -2 120 -46 163
-100 98z"/>
<path d="M2715 5659 c76 -68 147 -80 131 -21 -5 21 0 44 12 51 13 8 22 -4 22
-32 0 -35 5 -40 24 -21 37 37 65 29 33 -10 -18 -23 -19 -29 -2 -19 31 19 33
-34 4 -89 -14 -25 -14 -50 -1 -73 16 -29 21 -30 28 -5 5 17 20 65 33 107 28
85 29 83 -87 146 -46 25 -60 26 -73 5 -13 -20 -27 -21 -69 -2 -99 46 -126 28
-55 -37z"/>
<path d="M2090 5608 c-199 -69 -309 -217 -208 -279 10 -6 18 -80 18 -164 0
-83 4 -147 10 -142 10 10 25 85 30 147 3 39 3 39 18 1 8 -21 8 -80 -2 -130 -9
-50 -12 -102 -7 -116 17 -45 192 -30 288 25 48 28 104 50 125 50 21 0 38 9 38
19 0 11 27 34 60 51 89 46 78 90 -21 90 -67 0 -81 6 -75 35 5 23 25 35 62 34
31 0 54 10 54 25 0 14 -9 26 -21 26 -21 0 -83 126 -75 155 13 48 -103 230
-143 223 -6 -1 -74 -24 -151 -50z m103 -173 c-7 -25 -13 -50 -13 -57 0 -6 -34
-6 -75 0 -92 15 -101 66 -15 84 107 23 116 21 103 -27z m95 -328 c-21 -14 -49
-35 -62 -46 -51 -44 -117 -27 -76 19 23 25 51 36 73 29 21 -6 37 -4 37 6 0 10
15 18 33 18 27 0 27 -4 -5 -26z"/>
<path d="M3612 5288 c-21 -54 -13 -112 13 -103 29 10 46 135 18 135 -10 0 -24
-14 -31 -32z"/>
<path d="M3091 5176 c-22 -12 -58 -24 -80 -25 -48 -3 -131 -46 -131 -67 0 -90
176 -161 285 -115 21 9 35 7 35 -7 0 -12 8 -22 17 -22 9 0 16 13 16 29 0 16
-7 25 -15 20 -8 -5 -18 10 -22 35 -4 27 -25 50 -56 58 -45 13 -46 14 -7 16 46
2 68 35 52 77 -11 31 -43 31 -94 1z"/>
<path d="M3361 5062 c-68 -97 -35 -174 60 -136 27 11 62 23 77 26 61 12 96 68
56 91 -29 16 -31 26 -13 49 20 23 11 28 -57 28 -67 0 -89 -10 -123 -58z"/>
<path d="M3817 4806 c-17 -20 -17 -38 1 -71 22 -43 22 -43 13 8 -10 49 -6 53
50 49 81 -6 96 21 18 32 -36 6 -69 -2 -82 -18z"/>
<path d="M3383 4660 c-30 -86 31 -137 95 -82 25 22 46 46 48 55 2 10 10 15 17
13 7 -3 18 7 23 20 5 14 -5 27 -23 29 -18 1 -57 7 -87 12 -44 8 -57 0 -73 -47z"/>
<path d="M3596 4583 c-32 -33 -30 -35 45 -38 87 -3 97 7 44 47 -44 34 -48 33
-89 -9z"/>
<path d="M4456 4398 c-4 -12 -43 -24 -87 -25 -70 -3 -84 -12 -119 -78 -34 -63
-50 -75 -105 -75 -78 0 -87 -35 -12 -44 57 -7 114 -75 75 -89 -81 -30 -99 -62
-60 -105 57 -62 88 -51 115 40 13 45 45 95 70 112 24 16 47 49 51 73 5 37 19
43 100 44 52 0 101 7 109 15 26 27 102 14 153 -26 51 -40 122 -35 109 7 -31
96 -374 226 -399 151z"/>
<path d="M3962 4191 c-1 -83 5 -131 16 -120 34 36 41 139 13 199 -27 58 -28
55 -29 -79z"/>
<path d="M3420 3942 c0 -11 24 -49 54 -85 30 -37 57 -71 60 -76 4 -4 18 3 31
16 20 20 16 32 -17 59 -23 19 -48 50 -54 69 -13 36 -74 50 -74 17z"/>
<path d="M5150 3520 c-7 -12 -20 -16 -28 -11 -30 18 -82 -37 -56 -59 17 -14
41 -4 82 35 31 30 47 55 36 55 -12 0 -27 -9 -34 -20z"/>
<path d="M3700 3494 c0 -23 197 -150 320 -206 207 -94 220 -97 277 -63 40 24
85 29 175 21 107 -10 131 -5 204 42 86 54 134 65 153 34 6 -9 -39 -39 -99 -65
-123 -53 -134 -70 -56 -90 95 -24 270 83 262 161 -7 72 -63 90 -158 51 -79
-33 -145 -9 -89 32 51 38 23 37 -186 -4 -205 -41 -511 -10 -662 67 -103 52
-141 58 -141 20z"/>
<path d="M2880 3152 c0 -82 4 -86 88 -76 65 8 104 84 43 84 -12 0 -46 13 -76
29 -55 28 -55 28 -55 -37z"/>
<path d="M2530 3159 c-92 -37 -230 -203 -230 -276 0 -21 -13 -49 -29 -62 -53
-44 3 -221 70 -221 8 0 10 39 4 86 -10 96 122 324 211 364 79 35 54 141 -26
109z"/>
<path d="M4340 3165 c0 -29 131 -104 210 -121 50 -11 78 -27 74 -44 -11 -47
38 -56 148 -27 118 31 170 18 208 -53 12 -22 34 -40 50 -40 15 0 41 -19 57
-42 27 -39 32 -39 78 -10 26 18 54 26 62 19 7 -8 13 -3 13 11 0 13 -11 22 -25
20 -49 -7 -155 51 -155 85 0 61 -55 91 -194 105 -164 16 -423 67 -471 93 -42
23 -55 24 -55 4z"/>
<path d="M2690 3099 c-23 -72 -110 -187 -162 -215 -27 -14 -44 -34 -37 -45 21
-34 98 -20 176 33 111 75 192 95 235 56 42 -38 148 -30 148 11 0 28 -59 49
-198 71 -68 10 -85 25 -95 78 -10 55 -51 62 -67 11z"/>
<path d="M4365 2934 c-49 -15 -65 -31 -65 -66 0 -65 24 -72 91 -27 33 21 90
39 128 39 61 0 66 4 40 29 -39 39 -115 49 -194 25z"/>
<path d="M4815 2849 c-76 -42 -71 -77 8 -61 67 13 117 45 117 74 0 27 -63 20
-125 -13z"/>
<path d="M1675 2791 c39 -78 65 -91 65 -33 0 20 -22 52 -50 70 l-49 33 34 -70z"/>
<path d="M2453 2587 c-18 -19 -16 -87 3 -87 25 0 64 45 64 74 0 27 -44 36 -67
13z"/>
<path d="M1428 3717 c-31 -36 -32 -42 -5 -32 17 7 42 2 55 -11 17 -17 21 -12
16 21 -10 65 -23 70 -66 22z"/>
<path d="M4920 2220 c0 -11 -31 -20 -70 -20 -57 0 -71 -9 -82 -50 -7 -27 -18
-50 -26 -50 -7 0 -30 -27 -49 -61 -38 -63 -8 -159 49 -159 28 0 138 111 138
138 0 12 9 22 20 22 11 0 18 20 17 45 -1 25 4 70 12 100 9 30 10 55 3 55 -7 0
-12 -9 -12 -20z"/>
<path d="M4089 2114 c20 -30 46 -47 62 -41 16 6 58 -19 95 -56 151 -152 305
-244 369 -222 51 17 22 63 -66 105 -50 24 -101 55 -115 68 -45 44 -264 169
-321 183 l-58 14 34 -51z"/>
<path d="M5103 1868 c-24 -17 -43 -47 -43 -68 0 -21 -12 -45 -27 -54 -68 -40
-92 -146 -34 -146 40 0 141 126 141 175 0 14 9 25 20 25 24 0 27 73 3 88 -9 6
-36 -3 -60 -20z"/>
<path d="M4740 1340 c0 -11 -14 -20 -31 -20 -16 0 -35 -13 -41 -28 -6 -15 -42
-34 -80 -41 -39 -7 -75 -25 -80 -40 -6 -14 -46 -32 -89 -39 -44 -7 -79 -24
-79 -37 -1 -16 -7 -15 -20 5 -11 17 -20 21 -20 10 0 -23 -43 -27 -420 -42
-148 -5 -278 -19 -289 -29 -23 -23 -33 -83 -11 -69 9 5 22 -6 29 -25 11 -29
16 -30 32 -4 13 21 18 22 19 3 0 -19 10 -20 41 -4 22 13 73 17 115 10 136 -23
467 -41 477 -26 5 8 0 32 -11 52 -12 22 -12 47 -1 65 17 26 28 13 21 -26 -1
-9 20 -26 48 -39 27 -12 50 -37 51 -54 0 -42 90 -107 135 -98 52 10 43 85 -12
93 -41 5 -45 13 -32 70 8 34 14 74 14 88 1 14 17 25 38 25 113 0 297 140 254
193 -27 32 -58 36 -58 7z"/>
<path d="M4843 1155 c-22 -36 -64 -87 -92 -114 -89 -83 -46 -182 50 -115 60
43 159 246 132 273 -33 33 -47 26 -90 -44z"/>
<path d="M3555 835 c-26 -66 87 -91 571 -127 96 -8 180 -21 186 -31 6 -9 25
-17 42 -17 22 0 11 21 -35 68 -61 63 -76 68 -198 70 -114 2 -273 19 -493 56
-43 7 -66 1 -73 -19z"/>
<path d="M4381 641 c-16 -10 -36 -14 -45 -8 -23 13 -59 -12 -46 -33 13 -21
130 17 130 42 0 22 -3 22 -39 -1z"/>
<path d="M2360 2013 c0 -63 26 -93 80 -93 52 0 55 5 42 55 -16 62 -122 95
-122 38z"/>
<path d="M3603 1968 c-40 -28 -41 -33 -11 -79 36 -53 89 -42 127 29 29 54 -57
91 -116 50z"/>
<path d="M2792 627 c-7 -18 -4 -43 7 -56 12 -14 15 -31 7 -38 -7 -7 7 -13 30
-13 23 0 52 18 64 40 17 32 15 40 -8 40 -16 0 -42 13 -59 29 -26 26 -31 26
-41 -2z"/>
</g>
</svg>
