<svg width="468" height="525" viewBox="0 0 468 525" fill="none" xmlns="http://www.w3.org/2000/svg">
<path d="M156.475 243.5L166.975 263H178.975L186.475 252.5L204.475 243.5M120.975 196L131.475 185.5H148.975L156.475 196M204.475 203.5L212.975 196M244.475 212.5L266.975 172.5L282.975 153L315.975 138H339.475H369.475H397.475L424.475 153L448.475 172.5L467.475 196V212.5V243.5V263V293L448.475 315L424.475 334.5L434.975 364V398.5L448.475 434V461L467.475 492V504L448.475 513L424.475 504L406.475 492L384.475 504L369.475 523.5H352.975L339.475 504L326.475 492L315.975 461L291.975 398.5L282.975 371.5H299.475L315.975 383.5H326.475M299.475 322.5H326.475M339.475 334.5L282.975 315L266.975 304.5H244.475L232.475 293M259.475 212.5L266.975 203.5L282.975 220M275.475 252.5L282.975 263L299.475 278L309.975 267.5L326.475 252.5M326.475 212.5V203.5L339.475 196L352.975 203.5V212.5M95.4755 513L61.4755 434L50.9755 334.5V304.5L13.9755 278L4.97549 252.5C1.97549 254 -2.22451 248.1 4.97549 212.5C26.1755 163.7 19.8088 158.5 13.9755 162C12.4755 152.333 19.8755 130.4 61.4755 120C113.475 107 135.475 105 156.475 120C184.075 135.6 199.975 154.5 204.475 162L223.475 196L232.475 227.5V252.5L212.975 293L204.475 304.5V315L223.475 322.5H244.475H259.475L282.975 334.5L291.975 349.5L282.975 364H266.975L244.475 371.5H223.475L212.975 398.5V446V492L204.475 513H186.475L178.975 504L166.975 492H148.975H131.475V504L120.975 513L107.475 523.5L95.4755 513ZM186.475 13L204.475 1L212.975 13H223.475L232.475 20.5L244.475 13L259.475 1H275.475H282.975L291.975 13L299.475 20.5L291.975 35.5L282.975 47.5H275.475L266.975 62L259.475 72.5L244.475 81.5V90.5L232.475 81.5L212.975 72.5L196.975 62L178.975 47.5V35.5L186.475 13Z" stroke="black"/>
</svg>
